<svg xmlns="http://www.w3.org/2000/svg" viewBox="0 0 288 288"><style>.st1{display:inline}.st2{fill:#c69696}.st3{fill:#94a78d}.st4{fill:#fff}.st5{fill:#94a78d;stroke:#94a78d;stroke-miterlimit:10}</style><g id="Layer_2"><path class="st5" d="M52.08 135.94c.1-.23.21-.45.3-.68.26-.73.48-1.46.75-2.18.14-.37.36-.7.52-1.06.58-1.31 1.38-2.5 2.12-3.73.48-.79 1.07-1.52 1.65-2.24.25-.31.59-.56.93-.79.76-.51 1.56-.94 2.18-1.64.13-.15.31-.27.49-.37 1.63-.92 3.16-2.01 4.84-2.85.81-.4 1.61-.77 2.48-1.03.83-.25 1.64-.56 2.47-.79a18 18 0 011.94-.39c1.58-.24 3.17-.45 4.76-.68.09-.01.18-.04.34-.07-.12-.09-.19-.17-.28-.2-.53-.23-1.07-.45-1.61-.66-.35-.14-.71-.25-1.06-.38-.62-.23-1.24-.46-1.84-.71-.36-.15-.71-.33-1.03-.56-.67-.48-1.34-.99-1.98-1.52-.4-.33-.78-.69-1.12-1.07-.84-.94-1.69-1.86-2.46-2.86-.62-.81-1.16-1.68-1.65-2.58-.62-1.15-1.25-2.29-1.98-3.37-.27-.4-.44-.86-.65-1.3-.16-.35-.11-.7.01-1.05.05-.16.1-.33.09-.5-.08-1.09.19-2.12.42-3.17.23-1.03.62-2.01 1.02-2.98.19-.46.45-.9.7-1.33.45-.77.91-1.54 1.39-2.3.36-.57.77-1.11 1.16-1.66.12-.17.24-.33.34-.51.6-1.1 1.34-2.09 2.22-2.98.27-.27.49-.57.63-.93.79-1.97 5.47-6.66 5.61-6.67.12-.01.25-.02.35-.07.28-.14.57-.15.86-.04 1.22.48 2.48.82 3.74 1.13.21.05.42.14.62.23.68.29 1.36.57 2.03.88 1.09.5 2.16 1.01 3.25 1.52.11.05.23.11.33.19.82.65 1.79 1.04 2.69 1.55.37.21.69.48 1.04.73.23.16.44.35.68.5.44.27.9.51 1.34.8.35.23.68.5 1 .78.49.44.94.93 1.44 1.35 1.4 1.18 2.52 2.58 3.52 4.1.52.79 1.07 1.55 1.6 2.33.38.56.74 1.13 1.11 1.7.44.68.65 1.43.74 2.22.07.56.16 1.11.38 1.65.1.26.11.55.17.82.02.12.05.23.08.35.07-.03.1-.03.12-.05.6-.73 1.18-1.47 1.8-2.18.31-.35.66-.67 1.03-.96.3-.25.65-.44.98-.66.85-.56 1.79-.83 2.82-.76.26.02.53.01.78.02.28-.45.54-.89.82-1.3.21-.29.42-.6.69-.83 1.53-1.28 3.06-2.57 4.62-3.81 1.02-.82 2.16-1.47 3.38-1.95.2-.08.41-.16.6-.27.91-.53 1.84-.46 2.78-.11.76.29 1.49.64 2.2 1.07.82.5 1.74.86 2.64 1.24 1.6.67 3.19 1.33 4.64 2.3.02.02.06.02.14.04.46-.64 1.19-.69 1.91-.77 1.83-.19 3.64-.07 5.43.35.18.04.38.07.56.04.89-.13 1.68.11 2.43.56.91.56 1.82 1.12 2.72 1.69.61.39 1.22.78 1.81 1.19.44.31.79.72 1.08 1.17.13.21.28.42.41.63.53.9 1.15 1.72 2.02 2.34.15.11.27.26.41.39.02-.52-.07-.79-.37-1.13-.36-.39-.48-.88-.6-1.36-.08-.33-.11-.68-.15-1.02-.03-.3-.19-.47-.47-.58-.53-.19-1.06-.4-1.57-.64-.22-.1-.41-.29-.58-.47-.19-.21-.35-.45-.51-.68-.4-.59-.86-1.11-1.47-1.51-.49-.32-.87-.77-1.16-1.29-.22-.39-.61-.58-.95-.83-.04-.03-.09-.06-.13-.05-.53.18-.86-.19-1.22-.45-.55-.4-1.07-.83-1.61-1.23-.43-.32-.9-.6-1.44-.68-.7-.1-1.41-.21-2.11-.19-1.41.03-2.82.13-4.24.23-.23.01-.45.13-.66.22-.7.29-1.38.62-2.16.62-.28 0-.57-.01-.84-.06-.76-.13-1.52-.27-2.27-.42-.88-.17-1.72-.5-2.55-.84-.6-.24-1.19-.49-1.8-.71-.84-.3-1.58-.77-2.3-1.28-.26-.18-.36-.51-.69-.66-.29-.13-.53-.39-.75-.63-.23-.25-.43-.54-.6-.84-.29-.5-.53-1.03-.8-1.54-.11-.21-.24-.41-.35-.61-.46-.84-.92-1.68-1.39-2.52-.2-.36-.42-.7-.64-1.05-.34-.55-.58-1.14-.79-1.76-.24-.7-.53-1.38-.85-2.05-1-2.08-1.64-4.28-2.09-6.54-.35-1.74-1.25-6.05-1.27-6.15-.24-1.19-.73-2.27-1.43-3.26-.37-.53-.76-1.04-1.13-1.57-.12-.17-.22-.35-.34-.51-.1-.13-.81-.87-.76-1.25.01-.11.04-.21.05-.28.29-.04.53-.07.77-.11.17-.03.34-.07.51-.1 1.12-.18 2.2-.5 3.27-.87 2.38-.82 4.79-1.54 7.23-2.15 3.68-.92 7.4-1.61 11.15-2.15 1.37-.19 2.76-.19 4.14-.2 1.19-.01 2.35.21 3.5.47.41.09.8.27 1.2.43.52.22 1.03.46 1.55.69.25.11 2.41 1.39 2.9 1.83.07.06.12.14.23.26.08-.19.14-.34.2-.49.18-.45.33-.92.56-1.35.63-1.2 1.22-2.41 2.03-3.5.31-.41.54-.89.77-1.35.09-.18 1.03-1.98 1.15-2.14.58-.76 1.15-1.53 1.73-2.3.03-.04.05-.08.09-.11.66-.63 1.1-1.45 1.7-2.12.53-.6 1.09-1.17 1.65-1.75.39-.41.81-.79 1.19-1.21.53-.58 1.03-1.19 1.57-1.76.3-.32.63-.61.98-.88.65-.49 1.33-.96 1.99-1.43.12-.08.23-.17.36-.23.44-.22.82-.05.92.44.05.21.05.44.04.66-.03 1.62-.03 3.24-.1 4.85-.07 1.5.24 2.94.57 4.38.06.26.12.52.15.79.03.25.57 1.8.87 2.4.46.91.95 1.8 1.41 2.71.23.46.42.95.64 1.42.3.66.61 1.31.91 1.96l.24.51c.28.55.53 1.11.84 1.63.97 1.64 1.33 3.41 1.22 5.29-.06.94-.25 1.84-.57 2.71-.05.14-.08.3-.12.46.79.13 1.54.29 2.3.37.82.09 1.54.39 2.24.81.43.26.87.51 1.32.72.32.15.67.2 1.11.22-.25-.33-.57-.32-.87-.46.28-.18.56-.17.79-.05.32.16.63.36.88.6.26.25.44.57.68.84.11.12.25.25.4.28.95.21 1.9.4 2.88.6-.1-.21-.2-.43-.31-.67.5-.32.86-.01 1.29.22.11-.42.21-.81.3-1.19.23-1 .45-1.99.68-2.99.15-.63.4-1.22.73-1.78.47-.8.94-1.6 1.4-2.4.19-.34 1.45-2.05 1.56-2.2.79-1.02 1.57-2.04 2.38-3.05.24-.31.53-.57.8-.86.31-.33.62-.66.93-1 .25-.28.58-.9.65-.82.23-.28.45-.54.65-.82.74-.98 1.59-1.87 2.59-2.6.37-.27.72-.56 1.07-.85 1.07-.89 2.29-1.55 3.51-2.21.37-.2.74-.42 1.07-.68.95-.72 1.86-1.51 2.83-2.19.72-.5 1.37-1.05 1.95-1.69.33-.36.64-.73.96-1.1.35-.41.62-.86.85-1.35.35-.75.77-1.48 1.18-2.2.45-.79.91-1.58 1.37-2.36.17-.3.34-.6.53-.89.12-.2.23-.41.48-.49.08-.02.13-.13.19-.2.08-.1.16-.2.24-.29.53-.64.53-.64 1.3-.72.06-.12.69-.34.94-.3l1.48.21c.48.07.96.12 1.44.19.26.04.52.13.78.16 1.82.25 3.65.47 5.47.75 1.38.21 2.76.46 4.07.98 1.4.55 2.6 1.37 3.67 2.43.61.61 1.31 1.13 1.92 1.74.73.73 1.44 1.5 2.1 2.29.64.77 1.17 1.64 1.91 2.33.07.06.14.12.21.19.09-.07 1.3 1.85 1.55 2.13.33.36.68.7 1.05 1 .4.33.84.6 1.26.92.35.27.35.36.01.67-.04.04-.08.09-.11.15-.16.27-.41.28-.66.19-1.04-.41-2.15-.61-3.14-1.15-.39-.21-.87-.28-1.3-.42-2.14-.69-4.33-1.22-6.56-1.56-.47-.07-.94-.07-1.4.08-.72.24-1.43.47-2.14.72a2 2 0 00-.49.28c-.81.59-1.63 1.19-2.43 1.79-.25.19-.5.38-.72.61-.81.82-1.72 1.51-2.66 2.17-.2.14-.37.33-.56.5-.48.45-.96.91-1.46 1.34-.3.25-.65.45-1.13.46.06.6.06 1.2.17 1.78.3 1.46.38 2.93.4 4.41.01.69.12 1.38.1 2.07-.04 1.55-.3 3.06-.76 4.54-.25.8-.44 1.61-.77 2.38-.5 1.15-.94 2.33-1.61 3.4-.3.48-.64.93-1.07 1.31-.21.19-.39.39-.56.75.51-.27.92-.48 1.33-.69.31-.16.6-.36.98-.25.04.01.09-.01.14-.03 1.03-.39 2.07-.74 3.08-1.17.45-.19.87-.51 1.26-.81.59-.45.9-.46 1.44.05.27.26.48.55.55.92.07.35.12.71.17 1.07.13.87.24 1.74.38 2.61.07.47.18.93.28 1.39.14.62.4 1.15.95 1.51.23.15.45.33.63.47 0 .23-.02.4.01.56.05.26.01.48-.13.72-.37.62-.77 1.22-1.32 1.71-.05.04-.08.1-.15.19.17.08.32.17.47.23.34.13.55.36.64.7.08.29.16.58.21.87.16 1.1.58 2.12.93 3.16.44 1.31.49 2.65.32 4.01-.15 1.17-.77 2.11-1.48 3.01-.18.22-.32.47-.51.67-.27.28-.53.62-.87.78-.72.35-1.1.96-1.47 1.61-.35.61-.72 1.22-1.04 1.85-.27.53-.7.75-1.23.67-1.07-.15-2.1-.45-2.76-1.42-.17-.26-.32-.55-.4-.84-.28-1.03-.55-2.07-.49-3.15.01-.09-.01-.19-.01-.28-.01-.36-.13-.63-.51-.75-.27-.09-.51-.24-.4-.61.01-.03-.08-.08-.14-.15-.21.19-.2.43-.2.66.01.84.19 1.64.48 2.44.36.99.66 2 .96 3.01.18.59-.1 1.02-.58 1.45-.07-.24-.15-.42-.19-.61-.15-.67-.43-1.27-.8-1.85-.74-1.14-1-2.4-.89-3.74.03-.4.17-.8.26-1.2.04-.18.07-.37.11-.6-.11.03-.2.07-.3.09-.39.06-.58-.18-.42-.53.22-.47.47-.92.74-1.37.14-.22.22-.44.21-.7-.05-1.19-.08-2.39-.12-3.58-.01-.28-.02-.55-.02-.87-.47.09-.82.48-1.29.44-.12-.21-.02-.35.11-.47.23-.21.46-.44.73-.6.9-.52 1.8-1.04 2.72-1.51.59-.3 1.05-.73 1.53-1.27-.13.01-.2-.01-.26.02-.9.35-1.69.07-2.47-.38-.38-.22-.78-.39-1.19-.56-.18-.07-.4-.09-.6-.1-.59-.03-1.19-.05-1.78-.08-.07 0-.15-.03-.22-.06-.31-.15-.31-.15-.69-.07.08.13.14.25.23.36.33.41.52.89.65 1.4.15.58.33 1.15.51 1.72.34 1.07.59 2.15.47 3.29-.08.7-.29 1.37-.61 1.97-1.03 1.91-1.26 3.96-1.17 6.08v.28c-.01.25.06.45.29.6.41.26.66.66.94 1.05.37.52.77 1.03 1.16 1.54.1.14.21.27.33.4.75.83 1.03 1.83.94 2.92-.07.84.09 1.62.54 2.34.31.51.57 1.05.88 1.56.3.5.42 1 .11 1.6-.14-.07-.34-.1-.42-.21-.86-1.19-1.77-2.37-1.86-3.9-.06-1.04-.37-2.04-.46-3.07-.01-.16-.11-.32-.21-.46-.26-.35-.57-.67-.81-1.04-.4-.6-.75-1.23-1.13-1.85a.462.462 0 00-.23-.2c.01.18.02.37.04.55.16 1.72.27 3.45.18 5.18-.02.3-.02.6-.23.85-.26.32-.49.4-.86.23a6.004 6.004 0 01-2.22-1.78c-.24-.31-.46-.63-.75-.91.26.84.53 1.68.8 2.54.34-.4.61-.45 1-.18.23.16.44.35.65.54.99.9 1.95 1.83 3.06 2.58 1.14.77 2.35 1.41 3.69 1.74 1.25.3 2.53.27 3.79.03.37-.07.74-.14 1.12-.17.27-.02.43-.13.54-.37.39-.81.67-1.66.89-2.53.08-.31.16-.63.25-1-1.11.32-2.11.06-3.12-.22-.43-.12-.9-.11-1.35-.13-.49-.02-.97 0-1.46-.02-.26-.01-.51-.08-.7-.29.04-.04.06-.08.08-.08 1.13-.17 2.26-.44 3.41-.17.26.06.53.09.79.1.22.01.44-.02.65-.05.37-.05.74-.16 1.11-.17.22-.01.45.1.73.17.03-.14.07-.3.11-.45.2-.73.39-1.46.61-2.18.21-.66.64-1.19 1.15-1.64.19-.17.41-.35.76-.26-.05.13-.08.24-.14.34-.45.68-.74 1.42-.93 2.2-.37 1.45-.73 2.9-1.1 4.34-.12.45-.28.89-.36 1.39.23-.25.46-.49.69-.75.09-.11.16-.24.25-.35.78-.92 1.33-1.97 1.8-3.08.12-.28.24-.59.56-.77.11.07.25.12.33.21.1.11.21.26.2.39-.03.68-.2 1.32-.61 1.89-.33.46-.6.96-.92 1.42-.28.4-.6.77-.91 1.14-.21.25-.43.5-.66.73-.62.62-1 1.36-1.19 2.21-.15.69-.59 1.12-1.26 1.33-.62.2-1.21.19-1.85.04-1.42-.34-2.78-.94-4.24-1.09-1.02-.1-2.04-.15-3.05-.21-.12-.01-.25.02-.42.03.09.78.25 1.52.56 2.23.39.89.97 1.65 1.61 2.37.63.72.62.73.6 1.65.08.05.17.12.27.15.28.07.52.15.7.42.08.12.3.18.46.19.52.02 1.04.02 1.55-.02.72-.06 1.43-.19 2.16-.13.28.02.52-.09.74-.26.49-.38.89-.84 1.19-1.38.34-.62.69-1.24 1-1.87.79-1.64 1.56-3.29 2.35-4.94.11-.22.25-.43.41-.62.47-.57.97-1.11 1.43-1.69.59-.74.88-1.62 1.19-2.5.28-.8.35-1.63.42-2.46.12-1.5.21-3.01.31-4.52.02-.26 0-.52 0-.78-.08 0-.12-.02-.13-.01-.77.67-1.74.86-2.67 1.13-.25.08-.52.17-.78.17-.34 0-.51.17-.65.44-.42.79-.84 1.58-1.28 2.36-.17.3-.35.6-.56.87-.58.78-1.38 1.07-2.32.94-.56-.08-1.1-.25-1.66-.35-.27-.05-.56-.06-.84-.05-.33.01-.66.05-.98.1-.68.11-1.26-.14-1.83-.43.1-.36.23-.44.64-.47.75-.04 1.5-.1 2.25-.15.71-.05 1.41-.11 2.12-.15.42-.02.85-.02 1.27.01.3.02.47-.09.63-.32.26-.38.44-.79.55-1.24.14-.58.29-1.16.43-1.74.1-.39.32-.68.7-.83.52-.21.81-.08 1.03.44.25.08.45-.01.69-.15.42-.24.88-.41 1.33-.61.46-.2.46-.19.44-.68-.01-.12.01-.25.05-.36.28-.77.57-1.53.86-2.29.21-.58.35-1.16.21-1.79-.2-.97-.01-1.91.28-2.83.23-.75.49-1.49.81-2.21.32-.72.15-1.29-.31-1.86-.38-.46-.81-.86-1.31-1.21-.68-.48-1.3-1.04-1.94-1.57-.3-.25-.28-.65-.4-.98-.06-.16.06-.29.23-.36.18-.07.35-.15.52.02.27.28.55.57.82.84.24.24.42.55.84.53.13-.01.27.15.4.23.72.45 1.45.89 2.02 1.54.16.18.34.39.4.62.2.82.35 1.66.51 2.49.02.11 0 .22 0 .34.12.04.29.05.37.13.08.09.09.26.11.4.04.33.07.66.09.99.04.88.51 1.53 1.13 2.1.28.25.6.46.89.7.29.23.34.41.14.73-.13.19-.29.38-.47.52-1.03.83-2.06 1.64-3.1 2.45-.16.12-.35.21-.53.29-.28.13-.53.46-.49.77.16 1.47-.13 2.92-.22 4.37-.04.74-.13 1.47-.18 2.21-.09 1.34-.56 2.57-1.13 3.77-.16.34-.41.63-.64.93-.28.36-.59.7-.88 1.05-.32.39-.62.78-.76 1.29-.09.33-.28.63-.47.92-.67 1.08-1.16 2.22-1.46 3.46-.22.93-.51 1.85-.98 2.7-.48.87-1.19 1.45-2.15 1.71-.29.08-.58.14-.87.2-.63.11-1.27.21-1.9.33-.45.09-.87-.02-1.29-.18-.09-.03-.17-.07-.31-.12.21.67.41 1.27.58 1.89.23.85.43 1.71.62 2.56.06.29.07.59.06.89-.01.94 0 1.89-.06 2.83-.05.75-.11 1.51-.43 2.21-.08.17-.07.37-.1.55-.12.68-.23 1.36-.36 2.04-.34 1.84-1.02 3.56-1.78 5.26-.91 2.04-1.79 4.09-2.7 6.12-.65 1.44-1.41 2.81-2.44 4.02-.16.19-.3.41-.43.62-.55.89-1.17 1.72-1.92 2.44-.19.18-.41.34-.6.52-.14.12-.29.25-.41.39-.8.95-1.6 1.9-2.38 2.87-.25.32-.45.68-.66 1.03-.17.28-.4.48-.74.54-.09.02-.17.07-.25.11-.27.13-.39.08-.4-.21-.01-.18.03-.38.09-.55.74-1.98.97-4.06 1.17-6.14v-.09c.26-1.25-.12-2.39-.57-3.53-.05-.12-.1-.23-.14-.35-.51-1.49-1.51-2.59-2.74-3.51-.41-.31-.81-.65-1.19-1-1.08-1.01-2.37-1.7-3.67-2.37-.77-.4-1.52-.82-2.27-1.25-.24-.14-.46-.33-.66-.53-1.04-1.1-2.23-2.03-3.41-2.97-.5-.4-.92-.86-1.24-1.4-.4-.66-.86-1.27-1.37-1.86-.37-.44-.64-.96-.93-1.47a16 16 0 01-.83-1.59c-.24-.56-.44-1.14-.61-1.73-.19-.65-.34-1.3-.65-1.91-.21-.41-.27-.9-.35-1.36-.19-1.11-1.54-6.33-1.62-6.66-.18-.75-.55-1.4-1-2.01-.15-.2-.3-.41-.46-.6-.71-.81-.91-1.77-.82-2.81.03-.34.05-.69.07-1.02-.5 0-.99 0-1.47-.01-.15 0-.32-.03-.46-.09-.37-.17-.75-.17-1.15-.11-1.99.28-3.98.55-5.98.83-.15.02-.31.06-.46.11-.61.22-1.21.45-1.82.66-.25.09-.47.2-.58.44-.12.25-.32.33-.57.33-.13 0-.26.04-.38.01-.53-.16-.99.06-1.46.21-.22.07-.45.15-.67.23a.8.8 0 01-.57 0c-.3-.09-.64-.02-1.04-.03.25.3.53.35.78.43 1.55.52 3.1 1.03 4.64 1.58 1.32.47 2.4 1.29 3.33 2.33.57.63 1.13 1.26 1.78 1.82.41.36.75.8 1.1 1.22.51.6.96 1.25 1.51 1.81.98 1.02 1.58 2.23 1.9 3.58.27 1.16.51 2.33.74 3.51.23 1.18.24 2.37.3 3.57.07 1.44.18 2.88.27 4.33.05.88.09 1.75-.06 2.63-.04.23-.02.47.02.7.38 2.15.73 4.31 1.16 6.45.29 1.43.44 2.86.41 4.31-.03 1.26-.06 2.51-.11 3.77-.06 1.45-.35 2.87-.67 4.28-.12.52-.26 1.03-.55 1.5-.14.22-.13.52-.26.75-.29.52-.62 1.02-.96 1.51-.29.41-.65.77-.92 1.2-.42.66-1.02 1.12-1.65 1.51-1.74 1.08-3.62 1.83-5.66 2.13-.84.13-1.69.17-2.54.1-1.13-.1-3.54-.15-3.46-.24-.81-.18-1.58-.43-2.41-.39-.52.03-1.03.08-1.55.12-.4.03-.57-.02-.6-.22-.04-.28.2-.37.38-.47.33-.18.68-.33 1.01-.5.54-.28 1.03-.59 1.33-1.15.08-.15.22-.27.33-.4l1.71-2.01c.06-.07.14-.15.15-.24.12-.66.39-1.28.44-1.96.16-2.03-.01-4.05-.02-6.07 0-1.06.13-2.13.32-3.18.09-.54.39-1.06.66-1.55.48-.9 1.04-1.76 1.5-2.67.61-1.2 1.17-2.44 1.75-3.65.36-.75.73-1.5 1.09-2.24.15-.31.34-.55.75-.41.05.02.12-.02.21-.03-.05-.11-.07-.2-.12-.27-.36-.57-.72-1.14-1.08-1.72-.12-.19-.26-.36-.34-.56-.31-.75-.78-1.41-1.27-2.04-.92-1.18-1.49-2.51-1.75-3.98a2.68 2.68 0 00-.07-.27c-.01-.02-.04-.04-.1-.1-.11.35-.23.68-.33 1.02-.27.89-.71 1.68-1.42 2.29-.41.36-.68.81-.88 1.38.42-.22.79-.42 1.15-.61.22.08.24.22.12.37-.09.11-.19.21-.3.3-.89.68-1.47 1.58-1.83 2.63-.1.31-.24.61-.38.97h.38c.03-.05.05-.07.05-.1 0-.15-.07-.36.13-.39.12-.02.32.07.39.17.72.96 1.06 2 .57 3.17-.09.23-.23.46-.4.63-1.25 1.21-2.35 2.58-3.74 3.66-.21.16-.39.36-.62.57.09 1.05.17 2.11.28 3.16.09.89.23 1.78.34 2.67.22 1.88.2 3.77.1 5.65-.08 1.49-.16 2.98-.4 4.46-.26 1.63-.79 3.17-1.32 4.71-.38 1.1-.89 2.15-1.44 3.17-.28.52-.64 1-.95 1.52-.43.71-.83 1.44-1.25 2.16-.45.77-.89 1.55-1.35 2.32-.23.39-.51.75-.76 1.13-.25.38-.53.75-.75 1.14-.79 1.4-1.67 2.73-2.71 3.96-.53.62-.98 1.31-1.45 1.97-.36.5-.75.97-1.24 1.34-.22.17-.41.38-.61.59-.61.63-1.32 1.11-2.17 1.38-.64.21-1.27.45-1.92.64-.8.23-1.59.13-2.35-.21-.42-.19-.82-.4-1.23-.59-.93-.41-1.87-.82-2.81-1.22-.74-.31-1.43-.71-2.03-1.26-.28-.25-.59-.47-.87-.72a1.44 1.44 0 01-.35-.43c-.13-.27-.07-.41.21-.57.03-.02.07-.01.09-.03.28-.48.62-.25.96-.09 1.56.75 3.22.94 4.92.81 1.13-.08 2.17-.49 3.13-.98.03-.28.03-.54.1-.77.12-.39.12-.78.05-1.17-.28-1.58-.56-3.15-1.11-4.67l-1.2-3.33c-.05-.13-.1-.27-.17-.39-.4-.62-.62-1.3-.82-2-.2-.73-.42-1.45-.64-2.17a2.62 2.62 0 00-.2-.53c-.38-.71-.6-1.48-.79-2.26-.27-1.07-.77-2.05-1.3-3.02-.59-1.08-1.26-2.1-2-3.08-.17-.22-.25-.5-.39-.79a.492.492 0 00-.49.05c-.85.57-1.81.57-2.77.46-.4-.04-.8-.16-1.19-.29-1.58-.55-3.04-1.3-4.4-2.31-1.11-.82-1.95-1.86-2.86-2.85-1.07-1.17-1.82-2.57-2.84-3.76-.83-.97-1.61-1.98-2.45-2.93-.57-.65-1.26-1.19-2.12-1.44-.06-.02-.12-.04-.17-.08-.3-.2-.3-.4.01-.61.03-.02.06-.02.09-.03.02-.01.03-.04.09-.11-.2-.1-.39-.19-.65-.32-.05.45-.1.83-.15 1.22l-.21 1.77c-.01.08-.02.16-.05.23-.11.25-.38.31-.51.08-.17-.29-.43-.38-.71-.48-1.09-.35-2.02-.95-2.73-1.87-.38-.5-.81-.96-1.24-1.42-.38-.41-.79-.79-1.24-1.24-.09.23-.16.39-.21.57-.49 1.55-1.03 3.07-1.82 4.49-.55.99-1.14 1.95-1.7 2.94-.34.59-.65 1.18-.97 1.78-.51.96-.98 1.94-1.53 2.87-.82 1.36-1.83 2.59-2.92 3.75-.38.4-.72.83-1.08 1.24-.17.19-.32.39-.51.56-.84.74-1.69 1.46-2.54 2.19-.33.29-.7.54-1.01.85-.59.6-1.28 1.06-2 1.49-.51.3-1.01.64-1.52.96-.23.14-.44.31-.69.41-.63.27-1.18.66-1.72 1.06-.57.42-1.19.76-1.84 1.05-.51.23-.98.57-1.47.85l-1.77.99c-.21.12-.42.22-.61.36-1.37.95-2.78 1.84-4.09 2.88-.89.71-1.64 1.6-2.45 2.41-.88.88-1.4 1.97-1.81 3.11-.16.45-.36.87-.65 1.24-.35.45-.6.95-.83 1.47-.27.6-.64 1.16-.89 1.77-.4.95-.75 1.93-1.13 2.9-.09.23-.21.46-.35.66-.07.11-.2.21-.32.25-.28.11-.51-.05-.51-.35 0-.73-.14-1.47.03-2.21.04-.19 0-.41-.06-.6-.14-.43-.33-.85-.48-1.28-.26-.79-.5-1.59-.76-2.38-.12-.37-.3-.72-.44-1.09-.15-.38-.32-.75-.44-1.14-.4-1.34-.68-2.73-1.18-4.03-.61-1.59-.87-3.28-1.43-4.88-.38-1.08-.55-2.22-.79-3.35-.17-.78-.33-1.56-.65-2.31-.19-.44-.27-.93-.37-1.41-.2-.94-.36-1.88-.57-2.82-.1-.46-.24-.91-.39-1.36-.23-.66-.32-1.34-.36-2.04-.07-1.08-.1-2.17-.2-3.25-.09-.92-.26-1.84-.21-2.77.03-.72.07-1.44.08-2.17.03-1.85.03-3.71.06-5.56.01-.58.11-1.16.16-1.73.01-.15 0-.31 0-.47-.08-.2-.03-.41.01-.63zm8.29 41.5c.03 0 .06 0 .09-.01.03-.44.12-.88.07-1.31-.06-.61-.01-1.19.1-1.78.22-1.16.43-2.32.65-3.48.22-1.13.43-2.26.69-3.37.31-1.3.67-2.58 1.02-3.87.41-1.53.8-3.07 1.24-4.6.32-1.12.68-2.22 1.05-3.33.5-1.47.96-2.96 1.56-4.4.83-2.02 1.85-3.95 2.97-5.83.34-.57.65-1.15.97-1.73 1.08-1.95 2.07-3.95 3.32-5.81.89-1.33 1.83-2.63 2.77-3.93a90.1 90.1 0 012.22-2.93c.8-1.02 1.73-1.91 2.88-2.55.81-.46 1.55-1.02 2.24-1.65.59-.53 1.25-.95 1.98-1.25.74-.31 1.48-.61 2.22-.92 1.24-.52 2.54-.7 3.87-.65.34.01.67.01 1.01.01.02-.03.04-.07.07-.1-.05-.04-.11-.07-.15-.11-.49-.64-1.11-1.14-1.79-1.59-2.31-1.5-4.83-2.45-7.53-2.99-2.37-.47-4.74-.54-7.12-.13-.51.09-1.03.14-1.55.16-1.23.04-2.44.16-3.64.47-.96.24-1.93.42-2.9.64-.2.04-.4.09-.59.16-.66.25-1.33.49-1.98.76-1.24.51-2.35 1.26-3.51 1.93-1.36.79-2.5 1.85-3.71 2.82-.84.68-1.51 1.55-2.11 2.46-1.4 2.14-2.45 4.43-3.06 6.9-.65 2.61-.98 5.28-1.17 7.97-.04.57.03 1.16.07 1.74.02.28.08.56.11.84.16 1.42.43 2.82.47 4.26.04 1.41.2 2.82.53 4.2.16.68.24 1.39.32 2.09.15 1.26.25 2.53.65 3.75.16.49.29 1 .38 1.51.26 1.38.67 2.71 1.18 4.02.18.45.39.9.5 1.37.21.93.62 1.78 1 2.64.21.47.33.98.48 1.47.11.34.18.7.33 1.03.73 1.61 1.35 3.25 1.73 4.98.02.07.05.1.07.14zm.88.49c.26-.24.49-.39.63-.6.63-1 1.23-2.01 1.83-3.02.37-.62.72-1.25 1.22-1.79.23-.24.45-.48.65-.75.77-1.07 1.77-1.92 2.66-2.86.05-.06.12-.1.19-.14.91-.59 1.81-1.2 2.64-1.9.3-.25.65-.44.99-.64.69-.41 1.37-.83 2.07-1.22.5-.28 1.01-.58 1.55-.79.63-.25 1.24-.54 1.83-.86.47-.26.96-.48 1.42-.75.78-.44 1.57-.87 2.31-1.37.86-.58 1.67-1.23 2.5-1.85.19-.14.38-.29.55-.44.72-.66 1.44-1.31 2.14-1.99.78-.75 1.56-1.51 2.31-2.29.51-.53.97-1.11 1.43-1.69.69-.87 1.43-1.72 2.03-2.66.87-1.36 1.64-2.79 2.27-4.29.75-1.8 1.48-3.6 2.27-5.38.47-1.05.92-2.1 1.24-3.2.07-.25.09-.47 0-.73-.32-.85-.61-1.72-.93-2.57-.22-.58-.36-1.17-.42-1.78-.07-.76-.2-1.53-.29-2.29-.03-.28-.02-.56-.05-.85-.05-.51-.09-1.03-.17-1.54-.06-.38-.19-.76-.28-1.14-.11-.48-.48-.75-.81-1.06-.03-.03-.09-.02-.14-.02-.31-.03-.62-.04-.93-.08-.95-.12-1.91-.24-2.87-.09-2.04.33-3.97.94-5.69 2.14-.81.57-1.64 1.11-2.46 1.67-.41.28-.86.55-1.21.89-.81.79-1.65 1.56-2.35 2.44-2.25 2.79-4.35 5.7-6.08 8.85-1.09 1.98-2.22 3.94-3.3 5.93-1 1.85-1.99 3.71-2.69 5.71-.44 1.26-.89 2.52-1.28 3.79-.59 1.92-1.15 3.85-1.71 5.78-.22.77-.42 1.55-.62 2.32-.24.9-.51 1.78-.69 2.69-.5 2.48-.97 4.97-1.43 7.46-.15.8-.22 1.62-.32 2.43-.04.14-.02.28-.01.53zm48.4-122.36c.18.42.36.75.46 1.11.17.62.29 1.25.43 1.88.21.95.32 1.91.62 2.85.55 1.72 1.04 3.46 1.52 5.2.28 1.01.48 2.05.73 3.07.05.2 1.3 3.56 1.32 3.78.03.23-.01.49.08.69.52 1.14 1.04 2.29 1.62 3.41.55 1.06 1.18 2.08 1.77 3.12.49.87 1.09 1.65 1.78 2.37.09.09.19.17.28.26.22.22.51.4.65.67.32.63.88.96 1.4 1.37.35.27.85.35 1.04.83.02.06.12.1.19.13 1.58.79 3.2 1.46 5.03 1.41.11 0 .22.01.33.01 1.95.12 1.96.13 3.85-.41.81-.23 1.64-.3 2.47-.31.31 0 .63-.01.94.01.82.04 1.64.05 2.45.15.89.11 1.77.31 2.65.46.24.04.43.15.62.31.41.37.82.74 1.25 1.08.34.28.71.53 1.08.79-.1-.46-.23-.94-.32-1.42-.2-1.11-.67-2.09-1.31-3-.4-.57-.81-1.13-1.17-1.72a4.97 4.97 0 00-1.7-1.74c-.55-.34-1.06-.72-1.56-1.13-.43-.36-.87-.71-1.03-1.28-.16-.54-.32-1.08-.45-1.63-.1-.44-.16-.89-.23-1.33-.41-.13-.41-.13-.38-.54.08.06.16.12.29.22-.06-.26-.1-.44-.14-.62-.14-.56-.17-1.11.01-1.67.13-.42.22-.85.31-1.28.03-.11.02-.24.04-.38-.53.03-.97-.06-1.34-.42-.1-.09-.24-.14-.37-.2-.72-.31-1.45-.61-2.17-.91-1.86-.79-3.64-1.7-5.25-2.95-.71-.55-1.46-1.05-2.17-1.59-1.41-1.07-2.82-2.16-4.23-3.24-.77-.6-1.49-1.26-2.3-1.81-1.65-1.12-3.34-2.19-5.01-3.27-.94-.6-1.88-1.2-2.84-1.77-.39-.22-.8-.36-1.24-.56zm65.51 48.45c.52.1 1.07.14 1.57.31 1.65.56 3.29 1.16 4.75 2.15.53.36 1.07.72 1.6 1.08.76.51 1.43 1.12 2.07 1.78.52.54 1.08 1.05 1.63 1.57.27.26.56.5.84.75.52.47.96 1 1.29 1.62.37.72.85 1.36 1.4 1.95.26.28.5.57.74.85.45.53.84 1.09 1.16 1.71.47.89.95 1.77 1.49 2.62.49.78.92 1.57 1.24 2.43.22.57.43 1.15.62 1.73.45 1.36.86 2.73 1.35 4.07.59 1.63 1.04 3.3 1.27 5.02.2 1.48.29 2.97.43 4.45.02.18.03.87.03 1.04.01.68.04 1.35.06 2.02.05 1.62.2 3.22.91 4.74.17-.13.36-.22.49-.37.54-.65 1.08-1.3 1.6-1.98.35-.46.63-.98.97-1.45.87-1.18 1.61-2.44 2.19-3.78.68-1.57 1.57-3.05 2.12-4.67.43-1.26.97-2.49 1.26-3.8.14-.66.32-1.31.47-1.97.27-1.16.58-2.32.79-3.49.25-1.44.35-2.89.1-4.35-.07-.38-.17-.82-.06-1.16.15-.43-.04-.73-.16-1.06-.17-.45-.42-.88-.62-1.32-.3-.66-.63-1.31-.86-1.99-.28-.86-.74-1.48-1.6-1.85-.71-.3-1.32-.78-1.77-1.44-.05-.07-.13-.13-.14-.14-.37.07-.67.2-.97.19-.67-.03-1.35-.09-2.01-.2-.81-.14-1.6-.32-2.4-.51-.3-.07-.6-.19-.89-.31-1.36-.58-2.36-1.59-3.29-2.69-.16-.19-.35-.36-.56-.48-.52-.29-1.05-.57-1.5-.96-.15-.13-.35-.21-.54-.27-.85-.27-1.71-.52-2.57-.78-.51-.15-1.01-.35-1.53-.45-.75-.15-1.52-.27-2.28-.35-2.83-.32-5.66-.56-8.51-.54-.74-.01-1.47.05-2.18.28zm-94.77 11.7c1.55.17 3.09.33 4.64.47.32.03.67-.01.97-.11 1.02-.33 2.01-.72 3.03-1.04.79-.25 1.6-.44 2.4-.66.29-.08.58-.13.86-.23 1.34-.49 2.69-.99 4.02-1.49.12-.04.23-.16.29-.27.61-1.24 1.22-2.48 1.82-3.72.07-.15.13-.31.2-.49-.2-.07-.36-.13-.53-.19-1.15-.41-2.31-.82-3.34-1.51-.95-.64-1.91-1.26-2.86-1.92-1.57-1.08-3.2-2.04-4.94-2.83-1.12-.51-2.24-1.01-3.29-1.63-1.76-1.03-3.47-2.15-5.2-3.23-.95-.59-1.89-1.18-2.84-1.77-.89-.55-1.85-1.02-2.34-2.07-.13.11-.22.19-.31.27-.36.31-.7.63-1.07.93-.54.44-4.89 2.9-5.49 3.58-.3.34-.6.69-.91 1.02-.71.77-1.06 1.73-1.41 2.69-.14.38-.21.78-.3 1.11.25.28 1.06 1.93 1.21 2.44.2.69.54 1.31.99 1.87.28.36.58.7.86 1.06.21.26.45.5.59.79.16.34.39.6.64.86.24.24.51.47.74.73.79.92 1.85 1.5 2.81 2.2.07.05.17.09.25.13.65.28 1.3.56 1.94.84 1.37.59 2.74 1.19 4.11 1.77.33.12 2.26.38 2.46.4zm117.42-42.18c.38-.34.77-.68 1.15-1.02.89-.82 1.92-1.23 3.16-1.27 1.32-.04 2.63-.23 3.94-.33.32-.02.46-.18.6-.43.19-.36.41-.71.66-1.03 1.09-1.43 2.12-2.88 2.74-4.59.71-1.96 1.35-3.91 1.36-6.03.01-2.37 0-4.74-.34-7.1-.17-1.17-.38-2.33-.53-3.49-.06-.5.07-1.02-.25-1.47-.05-.07-.03-.18-.04-.28-.18-1.94-.36-3.88-.56-5.81-.06-.55-.19-1.1-.29-1.69-.13.1-.53-2.27-.89-3.17-.23-.58-.53-1.14-.8-1.71-.18-.37-.45-.73-.22-1.19a.64.64 0 00-.19.22c-.76 1.26-1.52 2.54-2.29 3.79-.38.62-.77 1.22-1.19 1.81-.18.25-.44.45-.7.62-.2.13-.32.26-.37.5-.16.75-.33 1.5-.5 2.26-.39 1.8-.82 3.59-1.43 5.33-.68 1.96-1.45 3.88-2.15 5.84-.81 2.26-1.59 4.53-2.4 6.8-.55 1.54-1.06 3.09-1.69 4.6-.87 2.07-1.85 4.1-2.75 6.15-.53 1.2-1.17 2.37-1.46 3.67-.11.5-.27.99-.32 1.48.43.37.91.3 1.43.29-.2.6-.37 1.15-.58 1.7-.21.56-.44 1.11-.67 1.66-.22.52-.46 1.02-.69 1.54.03.02.06.04.09.05.55-.74 1.22-1.35 1.94-1.91.02-.02.05-.04.07-.07.74-.99 1.87-1.58 2.68-2.5.05-.06.13-.09.19-.14.2-.18.4-.35.59-.54.59-.6 1.15-1.25 1.78-1.81.29-.26.52-.47.4-.89 0-.02.04-.04.08-.1.14.05.28.14.44.26zm-55.18-6.17c.02-.03.03-.06.05-.1-.2-.17-.4-.35-.61-.5-.36-.26-.61-.6-.72-1.02-.26-1.02-.41-2.07-.31-3.12.21-2.36.87-4.63 1.41-6.92.07-.29.16-.58.23-.86.04-.17.15-.44.1-.48-.22-.17-.11-.52-.4-.63-.12-.05-.21-.19-.31-.28-.69-.65-1.39-1.28-2.37-1.46-.05-.01-.09-.04-.13-.05-.98-.29-1.89-.77-2.9-.96-1.1-.2-2.18-.47-3.3-.54-2.02-.12-4.02-.07-6.01.24-2.42.38-4.81.95-7.16 1.64-1.69.5-3.39.94-5.1 1.37-1.4.36-2.81.66-4.22 1-.12.03-.24.08-.37.12.29.14.53.25.76.39 1.52.94 3.04 1.9 4.56 2.84 1.59.99 3.2 1.95 4.62 3.17 2.66 2.31 5.53 4.35 8.41 6.38 1.37.97 2.82 1.76 4.38 2.37 1.05.41 2.11.74 3.26.53.13-.02.27.01.44.02.09-.15.23-.3.27-.47.17-.79.67-1.25 1.38-1.55.07-.03.13-.09.2-.12.16-.06.32-.12.48-.14.26-.02.48-.11.68-.29.15-.13.33-.23.51-.29.7-.25 1.42-.36 2.17-.29zm-7.83 111.01c.16-.07.25-.1.33-.15.8-.49 1.62-.97 2.41-1.48 2.3-1.49 4.54-3.06 6.38-5.13.18-.2.38-.39.6-.52.61-.36 1.07-.88 1.51-1.4.48-.56.95-1.13 1.15-1.87.06-.21.18-.4.29-.59.24-.43.49-.84.72-1.27.53-.97.93-1.99 1.12-3.09.18-1.08.45-2.15.68-3.23.22-1.05.46-2.08.52-3.16.08-1.48.15-2.95 0-4.43-.17-1.67-.33-3.35-.64-5-.19-.99-.08-1.97.4-2.89.06-.12.09-.27.14-.4-.87 1.17-1.9 2.16-2.95 3.13-.52.48-1.07.92-1.45 1.52-.12.2-.27.39-.35.6-.37.95-.77 1.88-.93 2.91-.1.68-.48 1.27-1.01 1.71-.49.4-1.01.76-1.52 1.12-.15.11-.32.22-.5.26-.42.1-1.19.55-1.24.46-.38.13-.8.18-1.03.59.14.59.28 1.19.42 1.79.18.76.32 1.54.52 2.29.41 1.53.65 3.07.65 4.65-.01 2.32.01 4.65-.02 6.97-.01.94-.13 1.88-.62 2.73-.11.19-.2.35-.47.29-.1-.02-.2 0-.34 0 .03-.1.03-.16.06-.21.36-.64.59-1.32.6-2.06.01-.68.01-1.35.01-2.03.02-1.59.01-3.17.06-4.76.05-1.87-.14-3.7-.72-5.49-.12-.36-.17-.73-.24-1.1-.16-.79-.3-1.57-.46-2.36-.04-.2-.09-.39-.12-.54-.58.14-1.1.33-1.64.38-1.03.1-2.02.29-2.98.68-.46.19-.94.21-1.43.1-.68-.15-1.28-.44-1.79-.9-.69-.62-1.37-1.25-2.06-1.87-.2-.18-.4-.35-.62-.5-.09-.06-.24-.1-.33-.07-.34.1-.68.24-1.06.38.38.82.72 1.65 1.14 2.43.61 1.14 1.19 2.29 1.68 3.48.16.39.27.8.39 1.21.09.28.16.57.26.85.3.88.62 1.75.92 2.62.16.48.28.97.46 1.44.42 1.1.87 2.19 1.29 3.29.62 1.63 1.32 3.23 1.54 4.99 0 .03.02.06.02.09.15.77.29 1.54.44 2.31.06.4.01.78-.19 1.23zM74.3 92.53c.29.23.54.41.78.6.34.28.66.58 1.01.85.52.39 1.05.74 1.58 1.11 3.1 2.21 6.34 4.19 9.82 5.77 1.73.79 3.4 1.7 4.94 2.83 1.87 1.38 3.89 2.49 6.06 3.31.2.08.4.15.62.24.1-.16.19-.28.27-.42.33-.59.64-1.19.97-1.78.52-.93 1.05-1.86 1.58-2.79.09-.17.17-.32.1-.53-.29-.85-.56-1.7-.84-2.55-.29-.9-.56-1.8-.87-2.69-.56-1.58-1.56-2.9-2.45-4.29-.66-1.03-1.47-1.92-2.36-2.74-.89-.82-1.82-1.59-2.84-2.26-.97-.64-1.95-1.26-2.93-1.9-.22-.15-.47-.27-.67-.44-.52-.42-1.1-.72-1.7-1.01-.56-.28-1.13-.56-1.65-.91-.4-.27-.8-.5-1.24-.67-.25-.1-.5-.19-.75-.29-1.02-.4-2.01-.88-3.11-1.06-.9-.15-1.75-.48-2.54-.98-.15-.1-.35-.13-.53-.16-.36-.06-.76-.04-1.02-.38-.02-.02-.09 0-.18 0 .11.45.15.92.35 1.32.49 1 1.1 1.94 1.89 2.75.87.89 1.72 1.8 2.57 2.69.72.75 1.48 1.45 2.39 1.98.39.23.77.48 1.15.75.21.15.39.33.67.56-.57.13-1.03.21-1.48.33-.51.13-1.02.15-1.54.17-.56.02-1.14.04-1.68.17-1.38.32-2.72.79-4 1.38-.67.31-1.36.57-2.04.86-.11.07-.21.12-.33.18zm123.07 48.63c.03-.01.05-.02.08-.03 0-.09.01-.18 0-.28-.03-.66-.08-1.32-.1-1.98-.01-.19-.02-.39.06-.55.15-.32.14-.63.1-.96-.05-.41-.07-.81-.11-1.22-.19-2.23-.55-4.43-1.25-6.56-.5-1.54-1.02-3.07-1.55-4.6-.43-1.25-.89-2.49-1.54-3.64-.82-1.43-1.68-2.84-2.54-4.25-.18-.29-.42-.55-.64-.82-.4-.49-.82-.95-1.2-1.45-.44-.58-.84-1.18-1.26-1.77-.43-.61-.94-1.14-1.5-1.62-.6-.51-1.18-1.04-1.74-1.59a18 18 0 00-6.08-4.03c-.95-.39-1.92-.69-3.02-.76.05.14.05.3.13.36.17.13.15.25.07.41-.35.65-.4 1.35-.32 2.07.09.78.21 1.56.34 2.33.03.17 1.18 4.82 1.39 6.4.15 1.08.51 2.14.86 3.18.71 2.14 1.54 4.22 2.99 6 .21.26.41.52.57.81.31.54.72.99 1.16 1.42 1.3 1.29 2.73 2.42 4.2 3.49 1.46 1.07 3.1 1.86 4.68 2.72.61.33 1.17.73 1.69 1.19.19.17.38.32.58.48.91.75 1.82 1.5 2.74 2.24.38.31.65.69.79 1.15.14.46.24.94.35 1.41.03.14.04.3.07.45zm4.25-100.9c-.19.16-.35.38-.56.48-.74.33-1.39.8-1.97 1.34-1.04.97-2.22 1.75-3.44 2.47-.47.27-.93.61-1.3 1-.69.72-1.44 1.35-2.22 1.97-.6.48-2.69 2.37-2.75 2.44-.16.17-.32.35-.49.51-2.07 1.97-3.93 4.11-5.53 6.47-.13.2-.27.39-.41.58-.41.56-.78 1.14-1.03 1.79-.35.91-.69 1.82-1.07 2.72-.36.85-.43 1.73-.4 2.63.03.83.06 1.66.1 2.49 0 .11.01.21.02.35 1.05.27 1.81.94 2.47 1.74.24.29.52.61.57.95.1.64.19 1.3-.02 1.96-.24.76-.45 1.54-.66 2.31-.07.26-.18.55.09.79.03.02.04.09.03.13-.11.44.2.61.49.81.69.46 1.4.91 2.05 1.43.4.32.77.71 1.04 1.14.35.54.61 1.13.87 1.72.35.8.44 1.64.21 2.49-.03.1-.03.21-.05.32.03.01.05.01.08.02.23-.42.46-.85.69-1.28-.11-.04-.22-.04-.24-.08a.385.385 0 01.01-.26c.09-.18.21-.35.33-.54-.24-.22-.25-.44-.05-.7.08-.1.09-.26.1-.4.03-.22.02-.44.05-.66.17-1.18.33-2.37.54-3.54.22-1.2.5-2.4.99-3.53 1.04-2.37 2.08-4.75 3.14-7.11 1-2.24 1.75-4.57 2.55-6.89.51-1.5 1.03-3 1.57-4.49.73-2.01 1.52-3.99 2.24-6 .9-2.46 1.48-4.99 1.96-7.57zM131.75 96.3c-.21-.1-.4-.18-.58-.27-.38-.21-.77-.2-1.18-.08-.62.19-1.24.36-1.86.52-1.41.37-2.83.73-4.25 1.08-.29.07-.59.1-.88.14-.1.01-.2-.01-.3-.02-.06-.28.05-.43.28-.49.17-.05.34-.08.5-.13 1.14-.29 2.29-.56 3.42-.88.59-.16 1.16-.41 1.73-.62.09-.03.16-.11.34-.23-.24 0-.36-.02-.48-.01-.75.06-1.5.14-2.25.19-1.76.13-3.44.48-5.02 1.32-.86.46-1.82.72-2.8.76-.82.03-1.61.18-2.41.37-.64.15-1.22.41-1.77.75-.93.59-1.69 1.35-2.32 2.25-.81 1.17-1.43 2.44-2.04 3.71-.43.9-.48 1.84-.17 2.79.2.6.52 1.18.29 1.85.36.1.67.19.99.29.36.11.71.25 1.1.16.09-.02.24.02.29.09.38.49.91.8 1.39 1.18.29.23.37.53.39.87.01.09 0 .18-.02.27-.02.11-.01.24-.07.33-.06.08-.18.11-.29.16.07.17.13.34.21.53.71-.29 1.39-.56 2.03-.82-.02-.25-.07-.47-.04-.68.09-.69.2-1.37.3-2.05.12-.81.42-1.54.94-2.18.24-.31.46-.64.67-.97.64-1 1.41-1.89 2.4-2.57 1.05-.72 2.07-1.5 3.28-1.94.13-.05.26-.12.38-.19.5-.29 1.04-.45 1.62-.45.6 0 1.2.01 1.78.1.87.14 1.72.36 2.58.55 1.2.27 2.39.53 3.59.8.9.2 1.8.41 2.68.61.43-.34.83-.68 1.27-.99.68-.49 1.47-.62 2.28-.63.24 0 .5.07.73.15.66.24 1.25.59 1.75 1.09.37.37.73.73 1.11 1.1.08.08.19.15.3.23.39-.53.91-.67 1.48-.6 1.08.13 2.16.25 3.19.61.73.26 1.43.58 2.14.87.12.05.25.08.43.14-.01-.22.02-.39-.02-.53-.28-1.01-.53-2.04-.86-3.04-.4-1.19-1.13-2.16-2.09-2.98-.71-.6-1.35-1.28-2.03-1.9-.62-.56-1.21-1.15-1.89-1.63-2.4-1.67-5.09-2.41-8-2.35-.66.01-1.21.25-1.62.74-.36.43-.7.9-.93 1.41-.46 1.01-.84 2.06-1.26 3.1-.24.59-.55 1.13-1.05 1.54-.19.16-.32.38-.49.57-.24.29-.47.59-.75.85-.18.17-.41.3-.64.39-.33.14-.54-.01-.58-.36-.01-.08 0-.16-.03-.23-.12-.31-.01-.54.23-.75.42-.37.84-.76 1.26-1.14.65-.59 1.12-1.31 1.46-2.12.04-.17.08-.39.16-.63zm-15.53 37.75c-.06.03-.12.07-.2.1-1.23.47-2.02 1.35-2.44 2.58-.1.3-.2.6-.3.89-.34 1.06-.2 2.08.25 3.07.19.41.48.72.85.99.83.62 1.65 1.26 2.46 1.9.52.41 1.01.86 1.56 1.22 1.52 1 3.07 1.97 4.61 2.94.26.17.55.31.83.45.1.05.27.07.34.02.2-.16.41-.1.63-.09.49.03.99.13 1.45.05 1.28-.23 2.56-.53 3.72-1.16.56-.3 1.13-.55 1.76-.67.79-.15 1.57-.29 2.37-.42.41-.06.83-.08 1.29-.13-.18-.31-.33-.6-.51-.87-.53-.82-1.14-1.58-1.91-2.19-.06-.05-.16-.11-.16-.16.03-.35-.26-.47-.45-.67-.04-.04-.05-.13-.07-.2.04 0 .61-.05.61-.05-.12-.07-.25-.1-.38-.12-.79-.12-1.53-.36-2.2-.79-.91-.59-1.78-1.24-2.52-2.04-.13-.14-.25-.28-.4-.4-1.3-1-2.68-1.82-4.35-2.01-.41-.05-.79-.16-.97-.62.05-.04.19-.12.18-.14-.06-.18.03-.21.18-.24.94-.19 1.85-.1 2.72.28 1.26.55 2.41 1.28 3.39 2.26.34.34.73.65 1.13.91 1.18.77 2.49 1.21 3.89 1.32 1.05.09 2.07-.05 3.01-.59.63-.37 1.1-.87 1.36-1.57.28-.74.34-1.51.25-2.28-.15-1.31-.37-2.61-.56-3.91 0-.02-.04-.04-.1-.09-.27.12-.56.23-.83.39-.84.49-1.76.76-2.72.86-.39.04-.78.02-1.17-.03-1.09-.12-2.09-.57-3.11-.92-.63-.22-1.29-.38-1.93-.57-.39.58-.88.97-1.41 1.32-.05.03-.11.07-.15.11-.74.73-1.69 1.15-2.54 1.7-.23.15-.52.22-.79.3-1.19.36-2.38.3-3.59.07-.81-.15-1.52-.49-2.16-1-.37-.29-.71-.62-1.06-.93-.1-.09-.2-.19-.31-.3-.14.12-.25.22-.4.34.16.13.27.25.4.31.36.15.49.4.45.78zm40.75-98.63c-.54.19-.99.48-1.36.86-.92.95-1.81 1.92-2.74 2.86-.61.62-4.53 5.47-5 6.45-.88 1.83-1.53 3.71-2.29 5.58-.84 2.07-2.21 3.61-2.66 5.89-.45 2.29-.33 4.65-.07 6.97.18 1.63 1 2.19 1.77 3.51.32-.08.62-.18.93-.21.27-.02.6-.05.82.08.35.21.63.15.92-.05.24-.17.46-.37.69-.57.14-.12.27-.26.41-.39.64-.6 1.29-1.2 1.91-1.82.33-.33.68-.61 1.14-.73.3-.08.61-.15.92-.18.54-.06 1.09-.09 1.67-.13-.01-.16 0-.31-.02-.47-.12-1.2-.23-2.41-.38-3.61-.39-3.17-.35-6.33.25-9.48.21-1.1.38-2.2.57-3.3.57-3.32 1.22-6.62 2.12-9.87.13-.46.27-.92.4-1.39zm-6.98 59.26c.64.21 1.26.5 1.89.72.64.23 1.3.38 1.92.64 1.09.45 2.15.96 3.23 1.43 1.21.53 2.42 1.04 3.75 1.25.42.06.84.18 1.22.36.59.28 1.2.4 1.83.3 1.46-.24 2.9-.51 4.36-.77.35-.06.71-.11 1.07-.16.7-.1 1.42-.13 2.09-.32 1.1-.32 2.17-.74 3.25-1.14.12-.04.27-.16.3-.26.11-.43.3-.7.78-.86.36-.12.7-.31 1.09-.33.35-.02.64-.16.86-.42.23-.28.44-.57.66-.86.16-.21.31-.44.49-.64.14-.17.31-.21.47.01.03.04.09.07.15.11.5-.52.97-1.02 1.5-1.57-1.15.58-2.27 1.04-3.56 1.26.42-.47.79-.8 1.34-.97 1.6-.5 3.03-1.29 4.14-2.59.52-.61.96-1.28 1.39-1.95-1.33 1.35-2.94 2.28-4.63 3.08.22-.35.43-.72.74-.95.62-.46 1.3-.83 1.94-1.25.31-.2.59-.43.88-.65-.09-.05-.13-.05-.17-.03-1.14.64-2.27 1.28-3.4 1.92-.1.06-.23.16-.25.25-.06.34-.32.39-.56.37-.35-.03-.61.12-.86.3-.92.67-1.84 1.32-2.74 2-.51.39-1.07.48-1.69.39-.37-.05-.75-.08-1.12-.1-1.24-.07-2.47-.02-3.7.23-1.1.22-2.11.57-3.06 1.16-.41.25-.65.58-.72 1.04-.03.2-.04.41-.05.61-.02.46-.08.92-.37 1.29-.11.14-.27.27-.44.32-.41.12-.85.07-1.24-.08-.38-.15-.38-.58-.5-.92-.05-.13-.06-.28-.09-.41-.23-.92-.43-1.84-.69-2.74-.21-.72-.48-1.43-.77-2.13a4.46 4.46 0 00-1.33-1.74c-.24-.19-.52-.37-.81-.46-.88-.28-1.78-.52-2.67-.78-1.12-.33-2.23-.67-3.24-1.26-.56-.33-1.13-.62-1.7-.92-.67-.34-1.27-.78-1.72-1.38-.54-.72-1.1-1.43-1.49-2.23-.76-1.55-1.81-2.91-2.79-4.31-.05-.08-.14-.14-.26-.26.01.2.02.33.03.45.16 1.8.33 3.6.46 5.4.07.91.12 1.82.39 2.7.41 1.34.86 2.66 1.28 3.99.07.23.16.48.15.72 0 .22.06.35.22.48.54.45 2 2.41 2.75 2.66zm-6.49-18.12c.35.07.66.13.97.18.12.02.25-.01.36-.06.37-.15.54-.15.78.15.32.39.64.78.86 1.23.58 1.15 1.12 2.32 1.66 3.49a9.046 9.046 0 002.71 3.39c1.65 1.29 3.52 2.11 5.49 2.75 1.09.35 2.18.72 3.26 1.09.92.32 1.6.91 2.06 1.77.4.76.68 1.55.84 2.39.2 1.08.43 2.16.64 3.24.03.15.08.29.15.53.23-.61.44-1.11.61-1.62.27-.83.82-1.35 1.67-1.57 1.14-.29 2.28-.59 3.42-.91.8-.22 1.59-.33 2.42-.21.42.06.83 0 1.2-.29.31-.25.7-.3 1.1-.32.41-.01.81-.08 1.22-.13.69-.09 1.09-.63 1.7-1.03-.58-.03-1.03-.06-1.48-.08-1-.05-2.01-.15-3.01-.11-1.95.08-3.81.6-5.59 1.41-.53.24-.99.51-1.26 1.06-.22.43-.66.58-1.09.67-.26-.3-.29-.55-.03-.83.18-.2.31-.43.46-.66a3.45 3.45 0 011.77-1.35c.49-.17.99-.31 1.5-.42 1.01-.22 2.04-.39 3.05-.6.74-.15 1.49-.19 2.25-.16 1.48.07 2.95.12 4.43.16.21.01.44-.06.62-.16 1.55-.84 3.11-1.66 4.46-2.82.52-.45 1.1-.87 1.51-1.41.98-1.27 1.48-2.76 1.61-4.36.02-.29-.07-.51-.24-.73-.48-.64-1.13-1.05-1.84-1.35-1.25-.54-2.51-1.09-3.87-1.32-.26-.05-.48-.14-.76.03-.49.29-.68.17-.76-.41 0-.03-.03-.05-.07-.1-.43-.14-.88-.29-1.34-.44.02.39.04.72.05.96.19.13.37.19.47.31.45.54.89 1.1 1.33 1.65.57.7.81 1.52.86 2.4.03.57-.1 1.1-.44 1.56-.71.95-1.52 1.81-2.54 2.43-.46.28-.89.59-1.26.98-.36.38-.7.76-1.04 1.16-.24.29-.48.57-.8.78-.13.08-.23.16-.37.06-.16-.11-.18-.26-.11-.41.08-.19.17-.37.29-.54.24-.32.22-.66.15-1.06-1.51.52-3.03.49-4.55.37-1.17-.09-2.35-.2-3.53-.21-1.46-.01-2.87-.26-4.26-.68-.46-.14-.95-.19-1.44-.23-1.05-.08-2.1-.15-3.07-.66-.06-.03-.13-.03-.24-.06.06.24.12.44.14.64.02.22.02.44-.01.65-.05.29-.28.36-.46.12-.16-.22-.28-.49-.35-.75-.25-.94-.4-1.92-.97-2.74-.11.07-.23.17-.36.21-.19.05-.4.07-.6.08-.31.02-.63.06-.94.03-.81-.09-1.58-.31-2.12-.98-.02-.02-.05-.04-.07-.06-.56-.4-.94-.93-1.15-1.57-.27-.81-.52-1.61-.75-2.43-.16-.57-.45-1.03-.98-1.32-.47-.26-.92-.54-1.37-.83-.98-.61-1.72-1.42-2.02-2.56-.01-.03-.06-.06-.1-.1-.31.9-.56 1.79-.83 2.71zm14.28-40.41c-.07.18-.13.29-.16.41-.41 1.65-.86 3.29-1.2 4.95-.51 2.5-.96 5.01-1.4 7.51-.21 1.21-.39 2.42-.53 3.64-.22 1.91-.17 3.83.05 5.74.18 1.58.38 3.15.57 4.73.02.14.03.27.04.43.15.01.28.02.4.02.64-.04 1.28-.12 1.93-.12 1.22-.01 2.41-.17 3.61-.37.71-.12 3.11-.1 3.57-.64.37-.45.06-2.48.08-3.07.05-1.78.1-3.58-.34-5.31-.85-3.36-3.53-5.73-4.49-9-.59-2.01-1.24-4.01-1.72-6.04-.16-.66-.27-1.32-.17-2.01.01-.29-.04-.55-.24-.87zm12.23 108.63c.51-.14.53-.17.35-.64-.05-.13-.1-.27-.14-.4-.38-1.13-.83-2.24-1.39-3.3-.59-1.13-1.46-2.04-2.36-2.93-.69-.69-1.43-1.33-2.14-1.99-.03-.03-.08-.04-.15-.07-.04.12-.07.22-.1.31-.24.63-.4 1.3-.72 1.89-1.1 2.01-2.22 4.01-3.38 5.99-.38.66-.73 1.32-.96 2.04-.24.74-.41 1.48-.23 2.27.07.32.12.65.13.98.03 1.48.1 2.96.02 4.43-.05 1-.3 1.99-.48 2.97-.03.16-.14.31-.24.46-.49.72-1.01 1.4-1.63 2.01-.35.34-.67.71-1 1.07-.03.04-.05.09-.1.18.6-.01 1.14-.05 1.66-.27.39-.17.79-.3 1.17-.5.5-.26 1.02-.51 1.45-.86 1.32-1.06 2.63-2.15 3.91-3.27.51-.44.96-.95 1.4-1.46.44-.51.82-1.07 1.25-1.6 1.14-1.42 2.01-3 2.68-4.69.34-.86.66-1.73 1-2.62zm-38.4-26.55c.04-.08.06-.14.09-.19.25-.43.42-.49.88-.27.24.11.47.25.7.38.51.28 1 .6 1.52.85.6.29.79.69.69 1.39-.04.25-.13.49-.18.73-.12.6-.43 1.08-.93 1.42-.52.35-1.05.7-1.6.99-1.02.54-2.09.92-3.28.93-.41 0-.82.15-1.29.24.12.06.17.09.23.12.86.42 1.78.61 2.7.81.87.18 1.71.19 2.52-.23.11-.06.23-.11.35-.13.16-.02.39-.06.49.03.18.15.38.39.38.59.01.36-.01.75-.29 1.06-.21.23-.37.51-.54.77-.05.08-.08.18-.15.33.63-.04 1.19-.07 1.75-.13.21-.02.44-.09.6-.22.91-.7 1.79-1.44 2.69-2.14.35-.28.54-.59.42-1.04-.01-.03-.03-.05-.05-.09-.21.06-.41.14-.63.16-.1.01-.25-.06-.32-.14-.04-.05 0-.22.06-.29.56-.59 1.01-1.3 1.74-1.71.23-.13.32-.32.38-.56.25-1.17.23-2.34.04-3.52-.04-.22-.15-.43-.26-.72-.08.17-.13.24-.16.32-.13.3-.25.61-.39.91-.04.07-.17.1-.26.15-.04-.09-.12-.18-.11-.27.05-.34.07-.7.19-1.02.39-.98.28-1.9-.2-2.8-.1-.19-.17-.41-.24-.61-.1-.32.04-.64.33-.81.2-.12.33-.04.63.25.42.39.68.92 1.16 1.25.24.17.19.47.29.69.26.55.6 1.06.9 1.58.03-.01.06-.03.09-.04-.01-.09-.01-.18-.03-.26-.37-1.79-.87-3.54-1.6-5.22-.16-.37-.37-.73-.6-1.07-.14-.2-.34-.37-.54-.52-.21-.17-.44-.19-.7-.03-.61.36-1.28.49-1.99.52-.89.03-1.79.04-2.68.13-.78.07-1.53.04-2.3-.11-1.06-.22-2.13-.44-3.2-.6-1.4-.21-2.72.05-3.92.84-.18.12-.38.23-.56.35-1.15.75-2.05 1.73-2.55 3.01-.38.96-.65 1.97-.95 2.96-.15.49-.26 1.01-.55 1.45-.31.47-.3.47-.85.44.11.81.22 1.62.34 2.42.4-.6.81-1.17 1.04-1.81.38-1.06 1.02-1.98 1.49-2.99.23-.49.63-.85 1.13-1.1.39-.2.78-.41 1.15-.65.47-.31.98-.49 1.55-.5.77-.01 1.5.15 2.14.61.24.17.5.33.74.51.19.14.38.2.62.13.09-.18.21-.35.26-.54.14-.53.52-.89.87-1.26.34-.36.76-.54 1.25-.57 1.68-.09 3.33.06 4.96.44.66.15 1.09.55 1.32 1.21.53 1.48.72 3.02.83 4.57.05.73-.16 1.31-.67 1.83-.73.74-1.44 1.49-2.15 2.24-.02.02-.04.05-.07.07-.4.27-.7.62-.96 1.02-.08.12-.24.2-.37.3-.37-.48-.31-.95-.17-1.4.24-.78.59-1.52 1.18-2.12.41-.42.72-.91.76-1.53.01-.17.06-.35.14-.5.21-.39.13-.75-.02-1.13-.16-.41-.31-.83-.45-1.24-.07-.2-.09-.4.17-.52.4.21.4.73.74.97.01-.03.04-.06.03-.08-.38-1.1-.99-2.03-2.05-2.6-.13-.07-.29-.1-.45-.13-1.05-.15-2.07.06-3.09.22-.65.1-.83.39-.79 1.05.01.09.03.19.04.28 0 .11.01.22-.01.33-.07.37-.2.46-.58.39-.19-.03-.4-.07-.5.14-.19.41-.56.52-.94.63-.45.13-.9.28-1.35.4-.33.09-.53.3-.68.6-.6 1.16-.4 2.33-.13 3.48.26-.17.48-.42.74-.48.84-.18 1.7-.3 2.56-.41.59-.07 1.16.01 1.66.38.1.07.2.14.28.21.83-.48 1.11-.68.65-1.56-.41.6-.73.75-1.43.65-.4-.05-.78-.07-1.13.16-.03.02-.09-.01-.15-.03-.04-.37-.14-.73-.11-1.09.03-.35.11-.73.38-1.02.19.08.34.15.52.23-.02.12-.05.24-.07.38.29.01.48.53.86.13-.45-.81-1.15-1.19-2.1-1.27-.07.38-.14.73-.2 1.09-.18 1.08-.98 1.59-1.85 2.04-.07.04-.18.01-.39.01.19-.15.29-.22.38-.3.5-.43 1-.86 1.09-1.59.04-.28.14-.55.24-.81.12-.31.24-.62.4-.9.17-.29.53-.41.82-.28.55.26 1.09.55 1.64.83.08.04.17.09.33.18-.13-.27-.25-.45-.36-.63zm18.96-46.36l-2.99.43c-.35.05-.58.25-.71.55-.28.62-.11 1.34.28 1.76.74.79 1.42 1.64 2.14 2.45.53.59.78 1.29.8 2.07.02.7.27 1.27.7 1.8.33.41.68.79 1.18.97.54.2 1.09.38 1.64.57.29.1.59.18.95.29-.07-.24-.13-.42-.18-.6-.23-.77-.3-1.57.02-2.32.29-.69.69-1.34 1.05-2 .11-.19.31-.22.5-.18.17.04.33.13.35.33.01.19.02.38-.01.56-.11.73-.24 1.46-.36 2.19-.13.81.02 1.58.51 2.24.36.49.76.98 1.22 1.36.52.43 1.11.75 1.84.77.47.02.93.14 1.4.22 1.27.23 2.53.56 3.81.66 1.91.14 3.83.15 5.74.16 2.45.01 4.57-.9 6.43-2.45.4-.34.74-.77 1.06-1.19.27-.34.4-.75.45-1.18.05-.37-.05-.69-.36-.92-.26-.2-.53-.4-.78-.6-.33-.27-.64-.54-.95-.8-.56.28-1.14.6-1.75.84-.61.25-1.25.44-1.88.61-.64.17-1.28.34-1.93.39-.64.05-1.29-.06-1.96-.1.04.09.06.13.08.17.28.44.25.69-.14 1.01-.17.14-.36.25-.56.34-.3.13-.62.24-.93.34-1.37.42-2.79.46-4.2.53-.46.02-.99-.11-1.4-.33-.82-.43-1.59-.95-2.35-1.48-.29-.2-.52-.5-.75-.78-.13-.16-.29-.35-.15-.59.44-.12.45-.13.75.17.52.51 1.08.95 1.71 1.33.35.21.71.31 1.12.3.47-.01.94.01 1.41.02 1.01.03 2.01-.04 2.99-.29.41-.1.78-.28 1.11-.64-.22.01-.39.03-.56.01-.55-.05-1.11-.04-1.63-.19-.47-.14-.87-.12-1.33-.02-.88.19-1.74.45-2.68.1-.57-.21-1.04-.5-1.45-.92-.52-.53-1.04-1.06-1.51-1.63-.71-.86-1.63-1.35-2.66-1.71-.64-.22-1.26-.48-1.88-.77-1.59-.73-2.63-1.96-3.13-3.63-.01-.08-.05-.16-.07-.22zm-35.56 59.64c-.19-.27-.33-.49-.48-.71-.27-.37-.54-.73-.81-1.09-.04-.06-.11-.15-.16-.15-.32 0-.51-.22-.71-.41-.51-.47-1.01-.93-1.52-1.39-.09-.09-.18-.18-.26-.27-.38-.39-.76-.79-1.15-1.18-.28-.28-.52-.59-.67-.96-.27-.65-.54-1.3-.83-1.95-.27-.6-.53-1.21-.85-1.79a4.61 4.61 0 01-.52-1.65c-.18-1.64.1-3.23.53-4.8.07-.24.18-.47.3-.69a3.044 3.044 0 014.38-1.09c.14.09.28.19.42.28.3-.13.58-.24.87-.36-.86-1.12-1.9-1.95-3.59-2.46-1.27-.38-2.43-.18-3.41.76-.53.51-.92 1.11-1.26 1.75-.61 1.18-.92 2.47-1.26 3.74-.21.77-.41 1.55-.58 2.33-.26 1.23-.5 2.46-.74 3.7-.03.16.01.34.05.5.07.27.19.53.24.81.4 2.16.78 4.33 1.18 6.49.15.82.33 1.63.53 2.44.21.84.81 1.32 1.59 1.6.24.09.48.16.72.23 1.3.35 2.3 1.13 3.17 2.11.22.25.37.58.57.89.02-.07.04-.11.04-.15-.06-.91.19-1.74.6-2.53.67-1.29 1.7-2.29 2.71-3.3.26-.24.57-.44.9-.7zm52.62-59.34c.11.04.19.07.26.1.56.24 1.14.46 1.69.72.48.23.86.57 1.08 1.07.3.69.22 1.24-.35 1.75-.41.37-.84.71-1.29 1.03-.45.32-.93.62-1.48.71-.85.13-1.71.29-2.57.3-1.18.01-2.36-.06-3.49.39-.1.04-.25.04-.36-.01-.29-.13-.56-.28-.71-.65.15-.09.29-.22.46-.27.37-.11.76-.24 1.14-.26.94-.05 1.83-.28 2.73-.49 1.13-.27 2.17-.73 3.13-1.38.3-.2.49-.42.43-.85-.16-.05-.33-.12-.51-.15-.28-.04-.56-.06-.85-.05-.69.01-1.38.03-2.07.05-.08 0-.15.07-.25.12.19.38.48.74.04 1.11.15.19.28.36.09.56-.72-.16-2.12-1.07-2.53-1.64-.06-.09-.12-.18-.18-.28-.41-.72-.23-1.39.49-1.8.71-.41 1.48-.62 2.3-.56.61.05 1.22.15 1.82.23.12.02.24.03.41.05-.09-.39.15-.74-.05-1.1-.02-.04.05-.14.07-.21.07-.36.28-.69.15-1.1-.48-.04-.95-.11-1.41-.12-1.17-.02-2.26.31-3.32.8-.74.34-1.31.84-1.79 1.49-.44.6-.51 1.17-.12 1.83.5.84.46 1.8.54 2.72-.54.11-.9-.07-1.02-.53-.14-.5-.41-.91-.73-1.31a4.03 4.03 0 01-.41-.58c-.23-.42-.36-.89-.24-1.36.25-1.01.75-1.86 1.63-2.45 1.23-.82 2.57-1.31 4.05-1.42.93-.07 1.85-.07 2.77.1.13.02.35.04.4-.03.21-.33.5-.64.53-1.1-.35-.07-.67-.21-1.02-.09.02.12.03.21.05.34-.25-.02-.45-.04-.66-.06-.17.44-.52.52-.92.47-.43-.06-.87-.13-1.3-.17-.13-.01-.31-.01-.38.06-.25.3-.6.34-.94.38-.55.05-1.1.06-1.65.1-.48.04-.98.03-1.44.16-.79.22-1.57.48-2.31.81-.43.19-.82.52-1.17.85-.46.45-.85.97-1.12 1.57-.12.27-.29.4-.6.41-.34.01-.63-.19-.57-.51.07-.37.16-.74.33-1.07.39-.75.98-1.3 1.75-1.66 1.16-.54 2.32-1.05 3.59-1.28.34-.06.63-.2.99-.47-.4-.02-.7-.04-.99-.05-2.03-.1-3.94.36-5.73 1.29-.44.23-.86.53-1.22.87-.88.83-1.06 1.85-.66 2.98.33.93.94 1.64 1.79 2.11.71.4 1.45.75 2.2 1.08.92.41 1.87.73 2.73 1.27.62.39 1.07.91 1.35 1.59.09.21.22.43.39.57.39.31.82.57 1.23.84.07-.03.13-.05.18-.09.65-.39 1.36-.58 2.12-.51.78.07 1.57.13 2.34.26.66.11 1.31.13 1.97.05.89-.11 1.78-.22 2.67-.29.73-.06 1.43-.23 2.07-.58.59-.32 1.16-.69 1.72-1.07.25-.16.48-.37.68-.58.31-.33.33-.45.08-.83-.84-1.29-1.86-2.38-3.32-2.97-.76-.31-1.39-.8-1.89-1.44-.64-.82-1.15-1.7-.85-2.82.01-.03-.02-.06-.01-.05-.35-.22-.67-.43-1.03-.66-.14.15-.32.34-.46.5.15.17.26.3.39.45-.37.23-.38.51-.41.8-.03.69-.03 1.37-.45 2.01zm-59.03 36.88c.02-.03.03-.06.05-.09-.13-.08-.31-.13-.39-.24-.2-.31-.44-.63-.29-1.04a.45.45 0 00-.01-.28c-.13-.44-.07-.87.1-1.29.14-.35.29-.7.44-1.04.41-.92.83-1.83 1.24-2.74.02-.05.03-.12.04-.18-.47-.09-.54-.13-.5-.45.07-.75.14-1.49.25-2.24.1-.68.25-1.36.37-2.04.01-.07 0-.14 0-.26-.32.06-.6.07-.87.16-.76.25-1.5.55-2.15 1.05-.12.09-.26.19-.41.23-.44.13-.79.4-1.05.76-.92 1.25-1.9 2.47-2.72 3.78-1.59 2.54-3.06 5.16-4.18 7.95-.35.86-.76 1.69-1.07 2.56-.17.46-.22.98-.27 1.48-.12 1.15-.09 2.29.33 3.39.16.42.31.84.47 1.27.19.08.31-.04.43-.17.23-.24.3-.24.53 0 .23.24.47.47.67.73.27.35.69.6.78 1.09.01.06.14.12.22.16.19.09.37.17.57.24.25.09.5.18.58.57.06-.3.11-.49.13-.7.05-.81.07-1.63.14-2.45.13-1.49.22-2.98.57-4.44.3-1.28.68-2.53 1.39-3.64.9-1.39 2.16-2.21 3.88-2.19.23-.01.48.04.73.06zm94.83-1.5c-.04-.66-.08-1.32-.11-1.98-.01-.28-.13-.5-.28-.73-.44-.68-.9-1.37-1.26-2.1-.71-1.45-1.34-2.95-1.85-4.49-.15-.45-.32-.89-.54-1.31-.66-1.29-1.44-2.51-2.37-3.62-.58-.68-1.21-1.32-1.82-1.98a.996.996 0 00-.65-.33c-.05.24-.09.47-.13.7-.28 1.58-.58 3.15-1.08 4.68-.33 1.02-.7 2-1.8 2.45-.01.01-.03.02-.04.03-.65.52-1.47.16-1.64-.6-.08-.35-.2-.7-.37-1.01-.56-1.04-1.15-2.06-1.73-3.09-.02-.04-.08-.06-.17-.14-.06.61-.12 1.15-.16 1.7-.06.84.04 1.66.25 2.47.05.19.1.38.32.49.2.1.38.26.53.43.28.33.52.71.81 1.04.5.58 1.05 1.12 1.54 1.72.91 1.11 1.85 2.17 2.96 3.1 1.28 1.07 2.62 1.98 4.24 2.48 1.23.38 2.45.68 3.75.56.55-.03 1.05-.17 1.6-.47zm.54-10.79c-.04-.36-.07-.61-.1-.86-.21-1.7-.37-3.4-.31-5.12.05-1.33.23-2.64.8-3.85.47-1 .81-2.04 1.15-3.09.16-.49.18-.95.07-1.43-.26-1.13-.53-2.26-.79-3.39-.04-.18-.07-.37-.13-.55-.15-.48-.3-.95-.46-1.43-.49.3-.49.31-1.11.34-.21.01-.36.08-.41.31-.04.21-.18.31-.37.26-.36-.09-.71-.03-1.07.04-.22.05-.47.01-.7-.05-.96-.23-1.91-.48-2.92-.73-.02.15-.04.3-.05.45-.03.58-.07 1.16-.07 1.74 0 .41.01.82.06 1.22.1.81.25 1.62.33 2.43.05.53.05 1.07.03 1.6a2.4 2.4 0 01-.46 1.41c-.52.69-1.01 1.41-1.56 2.07-.5.59-.82 1.26-1.09 1.97-.02.05 0 .12 0 .19.63.12 1.12.44 1.55.88.19.19.42.33.63.5.41.34.83.67 1.21 1.04.32.32.6.68.89 1.04.4.49.87.9 1.42 1.22.83.48 1.64.99 2.48 1.46.27.13.59.19.98.33zm-49.4 38.74c-.21.27-.39.51-.58.75-.82 1-1.88 1.4-3.14 1.21-.54-.08-1.07-.24-1.6-.39-.76-.21-1.5-.45-2.25-.69-.22-.07-.38-.03-.54.16a12 12 0 01-.76.84c-1.1 1.1-2.33 1.98-3.89 2.27-.87.16-1.76.45-2.6-.1-.07.06-.12.1-.16.14-1.04.94-2.17 1.65-3.63 1.71-.33.01-.66.14-.98.21.01.09.01.12.02.15.78 1.46 1.59 2.9 2.72 4.12.43.46.85.93 1.31 1.35.82.76 1.79 1.13 2.93 1.06.72-.04 1.4-.19 2.06-.44.19-.07.39-.14.58-.17 1.04-.16 1.88-.65 2.57-1.46.32-.38.71-.72 1.1-1.02.44-.35.8-.75 1.06-1.24.21-.39.42-.78.63-1.16.14-.26.26-.53.61-.59.09-.02.17-.13.26-.2.61-.51 1.12-1.13 1.81-1.56.76-.48 1.22-1.26 1.71-1.99.58-.89.91-1.84.76-2.96zm-35.04-17.05c.12-.36.23-.65.25-.96.01-.14-.01-.33-.1-.4-.3-.25-.31-.61-.43-.92-.36-.88-.97-1.46-1.92-1.63-.46-.08-.93-.14-1.4-.15-1.35-.03-2.28.6-2.73 1.88-.48 1.36-.55 2.74-.31 4.18.27 1.61.46 3.23.6 4.86.11 1.23.53 2.35 1.05 3.44.28.59.64 1.15 1 1.71.49.77 1.11 1.45 1.84 2.01.63.48 1.33.83 2.11 1.01 1.38.32 2.7.12 3.94-.49 1.04-.51 2.02-1.15 3.03-1.73.02-.01.03-.05.06-.08-.93-.84-1.86-1.67-2.8-2.51-.08-.07-.18-.12-.27-.19-.6-.5-1.38-.49-2.06-.75-.04-.02-.11-.02-.14 0-.2.18-.33.06-.48-.08a.981.981 0 00-.36-.2c-.3-.1-.6-.18-.9-.27-1.19-.34-1.99-1.1-2.4-2.27-.03-.08-.01-.19-.02-.36.5.54.92 1.03 1.38 1.46.48.44 1.09.64 1.82.81-.25-.47-.46-.85-.67-1.23-.51-.91-.77-1.9-.76-2.93 0-.47-.07-.89-.23-1.33-.08-.22-.11-.53-.01-.72.1-.2.11-.38.09-.58-.03-.28-.04-.57-.1-.84-.12-.56.12-.95.56-1.29.11.17.21.32.36.55zm1.13-3.68c.1-.21.15-.32.2-.43.25-.49.45-1.01.77-1.45.96-1.31 2.02-2.54 3.59-3.17.09-.03.17-.09.25-.14 1.32-.82 2.76-1.04 4.26-.7.75.17 1.47.45 2.2.68.1.03.21.08.32.08.77.03 1.53.11 2.3-.01 1.19-.18 2.4-.28 3.6-.44.38-.05.75-.17 1.1-.26-.11-.24-.27-.44-.28-.63-.01-.56-.31-1.02-.48-1.52-.12-.35-.36-.49-.75-.51-.45-.02-.9-.11-1.33-.23-1.03-.31-1.95-.86-2.84-1.45-1.69-1.12-3.58-1.67-5.56-1.94-1.39-.19-2.73-.05-3.96.69-.32.19-.67.35-1.01.51-.65.32-1.25.72-1.81 1.18-.45.37-.94.69-1.41 1.03-.14.1-.3.19-.41.32-1.42 1.7-2.29 3.62-2.44 5.87 1.01.04 1.88.5 2.71 1.11.15.52.63.87.98 1.41zm20.37 12.38l.08.11c.3-.13.58-.3.89-.37.33-.08.68-.07 1.02-.11.22-.03.43-.1.65-.11.64-.03 1.29-.03 1.93-.07.23-.01.46-.08.67-.17.53-.23.95-.61 1.31-1.06.47-.57.75-1.23.95-1.93.34-1.22.43-2.48.45-3.74.02-1.71.08-3.42.44-5.11.09-.41.11-.84.13-1.26.02-.88-.02-1.76-.32-2.6-.63-1.75-1.8-3.01-3.46-3.81-.83-.4-1.69-.77-2.53-1.15-.46-.2-.86-.48-1.1-.92-.34-.64-.9-.99-1.52-1.27-1.02-.46-2.29-.22-3.11.61.59.37.99.91 1.36 1.48.08.13.25.22.4.3.28.15.52.36.49.69-.04.39.16.61.4.84.28.27.61.49.75.89.07.2.26.25.46.27.32.03.64.13.82.41.16.24.25.53.35.81.09.25.13.52.23.77.33.83.67 1.66 1 2.49.6 1.47.69 3.02.66 4.59-.02 1.2-.23 2.38-.49 3.54-.14.59-.33 1.18-.54 1.75-.1.26-.26.52-.47.69-.42.36-.57.86-.72 1.35-.1.34-.24.64-.43.93-.28.39-.51.78-.75 1.16zm70.04-96.79c-.04.22-.07.44-.13.64-.06.19-.11.41-.24.55-.32.35-.41.78-.42 1.22-.01.99-.01 1.98.01 2.97.01.45.06.5.5.61.5.13 1.01.23 1.51.34.09.02.19.03.28.03.48.04.97.08 1.45.13 1.99.2 3.98.35 5.97.37 1.62.02 3.2.27 4.64 1.05.61.33 1.22.65 1.8 1.02.62.39 1.27.68 1.97.9.42.13.84.31 1.27.35.56.05 1.13-.02 1.69-.04.1 0 .19-.06.39-.12-.17-.21-.31-.35-.43-.52-1.18-1.72-2.62-3.2-4.14-4.62-.92-.87-1.93-1.61-3.06-2.18-.91-.46-1.83-.9-2.73-1.39-.97-.52-2.02-.67-3.08-.81-1.22-.15-2.45-.23-3.65-.47-1.18-.24-2.35-.24-3.6-.03zm-22.34 52.51c.51.39.51.8.29 1.29-.26.59-.48 1.19-.7 1.8-.13.35-.26.72-.3 1.08-.08.86-.11 1.72-.14 2.59-.09 2.09.64 3.88 2.02 5.42.4.44.84.85 1.26 1.27.13.13.26.28.41.39.22.17.35.14.51-.09.09-.14.17-.3.24-.46.51-1.3.82-2.63.91-4.03.05-.79.23-1.55.54-2.28.47-1.11 1.13-2.1 1.82-3.08.49-.7.87-1.46 1.19-2.24.09-.22.15-.45.16-.68.03-.69 0-1.39-.21-2.05-.2-.62-.27-1.26-.29-1.9-.01-.41-.02-.82-.05-1.22-.07-.78.03-1.54.28-2.28.18-.54.4-1.06.6-1.59.03-.09.04-.19.06-.29-.07.02-.1.02-.12.03-1.1.89-2.22 1.76-3.04 2.94-.41.59-.9 1.09-1.46 1.52-.57.44-1.01.98-1.45 1.54-.29.37-.62.71-.96 1.03-.28.26-.62.47-.92.71-.22.16-.4.35-.65.58zm-31.83 26.72c.22 0 .35-.05.41 0 .11.09.28.29.25.34-.12.2.02.28.11.4.24.31.48.62.7.95 1.09 1.67 2.06 3.42 3.25 5.03.19.25.34.53.5.8.96 1.56 1.7 3.22 2.52 4.85 1.18 2.36 2.22 4.79 3.48 7.11.37.67.64 1.4.87 2.13.58 1.82 1.11 3.67 1.68 5.5.59 1.88 1.06 3.78 1.39 5.72.08.46.15.93.23 1.39.05-.05.07-.1.07-.14a25.82 25.82 0 00-.89-4.95c-.36-1.27-.53-2.54-.52-3.85.01-1.41-.03-2.82-.08-4.24-.05-1.19-.17-2.38-.22-3.57-.07-1.37-.14-2.73-.64-4.03-.07-.18-.05-.4-.02-.6.07-.4 0-.77-.11-1.16-.23-.77-.6-1.48-.93-2.21-.56-1.24-1.21-2.42-2.17-3.4-.33-.34-.62-.71-.93-1.07-.5-.57-1.02-1.11-1.65-1.53-2.4-1.6-4.95-2.92-7.58-4.09-.07-.03-.15-.03-.23-.05-.01.02-.02.05-.03.07.2.23.4.45.54.6zm13.78-39.85c.07.09.14.17.2.26.35.55.8 1 1.31 1.41.73.59 1.45 1.21 2.16 1.83.36.32.72.66 1.02 1.04.31.39.64.68 1.12.85.75.26 1.49.58 2.23.9.35.15.58.05.81-.23.96-1.19 1.89-2.4 2.6-3.76.09-.18.14-.38.17-.58.07-.58-.15-1.11-.34-1.64-.31-.87-.93-1.3-1.82-1.42-.12-.02-.24-.07-.35-.11-.25-.09-.49-.21-.75-.27-.88-.18-1.76-.34-2.64-.52-.5-.1-.97-.27-1.38-.58-.1-.07-.22-.15-.33-.16-.49-.03-.96-.11-1.39-.37-.06-.04-.15-.04-.23-.06-1.15-.28-2.3-.54-3.36-1.09-.29-.15-.62-.22-.94-.32a1.19 1.19 0 00-.79.02c-.62.23-1.24.45-1.85.7-.15.06-.26.21-.38.31-.88.03-1.62-.28-2.2-.96a.327.327 0 00-.19-.12c-.73-.13-1.45-.31-2.18-.37-1.61-.13-3.23-.16-4.85.05-.78.1-1.56.12-2.35.03-.72-.08-1.45.04-2.09.44-.41.26-.82.52-1.22.8-.62.44-1.2.91-1.75 1.53.18.1.32.18.47.25.52.27 1.01.56 1.25 1.15.1.24.22.49.44.61.39-.36.73-.74 1.14-1.02 1.64-1.13 3.42-1.94 5.45-2.06 2.07-.11 4.14-.19 6.22-.25 1.02-.03 2.04-.01 3.04.27.6.17 1.15.41 1.53.96.63-.25 1.2-.03 1.75.26.15.08.31.16.47.22 1.63.61 3.27 1.22 4.91 1.82.65.24 1.31.43 1.97.65.54.18 1.01.47 1.27.99.4.8.62 1.65.48 2.56-.1.64-.16.69-.84.81-.05-.06-.1-.16-.18-.2-.37-.2-.51-.54-.6-.92-.11-.46-.23-.92-.42-1.35-.32-.71-.77-1.3-1.6-1.47-.08-.02-.15-.05-.22-.07-1.56-.55-3.16-.97-4.77-1.32-.1-.02-.21-.02-.37-.04.06.27.12.49.17.74.07-.08.13-.13.2-.2zm-12.28 43.05c-.03.02-.05.04-.08.05.34.91.69 1.82 1.03 2.73.21.57.44 1.15.59 1.74.26.99.36 2.01.31 3.04-.05.97-.15 1.94.03 2.91.14.74.19 1.5.27 2.25.1.94.21 1.88.52 2.77.14.41.28.85.53 1.2.87 1.23 1.7 2.49 2.48 3.79.74 1.24 1.67 2.32 2.85 3.17 1.46 1.06 2.47 2.44 3.13 4.1.25.64.55 1.27.83 1.9.05.1.11.2.17.3.05-.11.05-.2.04-.29a39.99 39.99 0 00-1.17-4.95c-.5-1.69-1.01-3.37-1.52-5.06-.26-.87-.51-1.75-.95-2.56-.31-.58-.66-1.15-.94-1.74-1.13-2.4-2.24-4.82-3.37-7.23-.63-1.34-1.3-2.66-2.16-3.87a35.02 35.02 0 01-2.02-3.24c-.18-.34-.38-.67-.57-1.01zm-19.83 18.49c.02.05.06.12.08.2.1.38.35.69.37 1.11.01.32.1.65.18.96.09.32.2.63.32.93.13.32.25.64.41.94.28.51.45 1.04.42 1.62-.01.29-.06.59-.09.93.2.02.38.05.57.05.75 0 1.46-.2 2.14-.5.28-.13.54-.32.77-.52.57-.49 1.11-1.02 1.68-1.52 1.17-1.02 2.25-2.1 3.03-3.45.38-.65.78-1.29 1.21-1.91.44-.64.79-1.32 1.09-2.03.61-1.46.63-2.9-.03-4.34-.03-.07-.09-.13-.15-.21-.13 1.04-.4 1.98-.97 2.82-.53.79-1.26 1.17-2.24 1.13-1.32-.05-2.64-.02-3.94.2-.34.06-.69.04-1.03.03-.52-.02-1.05.05-1.59-.19-.61 1.35-1.31 2.61-2.23 3.75zm14.28-5.62c.04-.06.08-.1.11-.15.95-1.43 1.63-2.98 1.99-4.66.33-1.55.61-3.12.9-4.68.05-.28.08-.56.08-.84.03-1.47-.38-2.85-.86-4.22-.54-1.53-1.62-2.59-2.93-3.46-.55-.36-1.09-.73-1.62-1.13-.5-.38-1.03-.65-1.66-.74l-1.07-.15c-.18-.03-.38-.02-.48-.22.08-.3.37-.33.64-.49-.18-.06-.29-.12-.41-.14-.59-.11-1.18-.2-1.76-.3-.29-.05-.58-.13-.87-.18-.41-.08-.79-.05-1.18.23.47.42.88.81 1.48.97.96.26 1.88.63 2.67 1.26s1.43 1.41 2.07 2.19c.12.14.2.32.27.5.3.8.5 1.63.48 2.48-.02.83-.11 1.66-.18 2.49-.04.45-.09.91-.15 1.36-.08.61-.2 1.21-.27 1.82-.17 1.47.15 2.9.37 4.33.65.16.7.18 1.12.74.23.31.46.65.6 1.01.24.61.43 1.27.66 1.98zm59.07-76.94c.53-.39.99-.7 1.41-1.05.31-.26.61-.55.85-.87.7-.92 1.54-1.7 2.38-2.48.96-.89 2.03-1.62 3.23-2.16 1.28-.58 2.59-1.06 3.91-1.5.26-.09.55-.1.83-.13.64-.06 1.28-.11 1.92-.16-.71-.49-1.44-.93-2.19-1.31-.99-.51-2.04-.8-3.17-.81-.82-.01-1.63-.01-2.45-.07-1.68-.11-3.35-.25-5.03-.37-.85-.06-1.68-.22-2.47-.56-.22-.1-.45-.19-.73-.3 0 .15-.01.24.01.33l.21 1.3c.27 1.83.56 3.66.78 5.5.11.9.08 1.82.1 2.73.03.28.4 1.41.41 1.91zm-20.11 56.06c.02-.03.03-.06.05-.1-.11-.11-.21-.22-.32-.33-.7-.68-1.42-1.33-1.86-2.24-.13-.27-.38-.59-.64-.66-.33-.1-.44-.33-.61-.54-.16-.2-.33-.38-.47-.59-.21-.33-.45-.65-.59-1.01-.28-.7-.51-1.42-.55-2.19 0-.07-.04-.14-.08-.25-.63.18-1.24.32-1.84.52-1.66.54-3.34.99-5.05 1.35-1.56.33-3.07.82-4.55 1.4-.66.26-1.31.53-1.99.75-1.55.49-3 1.2-4.44 1.96-.07.04-.14.1-.21.16.67.51 1.37.76 2.17.41.1-.04.21-.04.32-.06 1.24-.18 2.46-.48 3.73-.47 1.24.01 2.48-.12 3.72-.08 2.37.08 4.74.18 7.1.5 1 .14 1.99.3 2.97.53 1.08.27 2.11.63 3.14.94zm-65.04 46.51c-.17-.03-.24-.05-.31-.06-.57-.03-1.07-.25-1.5-.61-.37-.32-.71-.67-1.06-1-.21-.19-.39-.43-.63-.56-1.19-.69-2.38-1.4-3.61-2.03-.87-.45-1.7-.95-2.44-1.58-.38-.33-.76-.66-1.16-.97a3.7 3.7 0 00-.59-.38c-.38-.19-.76-.37-1.15-.55-.91-.43-1.65-1.02-2.04-1.99-.08-.21-.25-.38-.41-.61-.29.37-.59.28-.84.12-.27-.17-.54-.38-.76-.62-.31-.35-.57-.75-.85-1.13a6.27 6.27 0 00-1.39-1.33c-.42-.3-.89-.26-1.36-.26-.05 0-.13.05-.15.09-.11.24-.25.49-.27.74-.01.14.16.32.28.45.84.89 1.7 1.77 2.53 2.67.3.32.56.68.79 1.05.81 1.28 1.69 2.49 2.87 3.47.28.23.52.51.76.77.37.41.73.83 1.1 1.23.62.68 1.3 1.27 2.12 1.71.65.35 1.3.7 1.96 1.04.99.52 2.04.91 3.15 1.08.88.14 1.78.17 2.67.27.92.12 1.55-.45 2.29-1.01zm86.47-73.16c.17.03.23.05.29.05.92-.02 1.82.05 2.72.23.09.02.19.05.28.03.11-.03.25-.08.31-.16.24-.39.44-.8.24-1.27-.07-.17-.13-.35-.21-.52-.16-.36-.37-.7-.48-1.07-.36-1.27-.61-2.57-.55-3.9.02-.34 0-.69-.06-1.03-.08-.5-.46-.73-.84-.48-.49.32-1.03.38-1.58.39-.94.03-1.83.25-2.71.55a21.7 21.7 0 01-4.64 1c-.83.09-1.65.24-2.44.49-.33.1-.56.29-.77.57-.62.88-1.08 1.84-1.56 2.8-.03.06-.04.14-.06.23.29.04.53.09.78.11.38.03.78.2 1.1-.15.03-.04.12-.03.18-.04.62-.08 1.24-.16 1.87-.22.28-.03.5-.14.73-.31.73-.54 1.53-.93 2.42-1.12.85-.18 1.38.08 1.64.91.1.31.24.61.35.92.12.34.36.46.71.51.85.12 1.71.26 2.55.42.14.02.34.12.37.22.03.11-.09.28-.18.4-.11.13-.26.25-.46.44zm-42.41 67.48c-.06.07-.09.08-.1.11-.06.21-.12.42-.19.63-.5 1.63-1.13 3.2-2.12 4.6-.56.8-1.11 1.6-1.67 2.4-.49.7-1.06 1.33-1.72 1.87-1.39 1.14-2.76 2.28-4.16 3.4-.7.56-1.38 1.14-2.34 1.31-.62.11-1.2.44-1.87.69.26.12.49.24.73.33.59.21 1.19.4 1.79.6.07.02.15.04.23.05 1.21.05 2.42.08 3.62-.16 1.67-.33 3.24-.9 4.66-1.84.72-.47 1.36-1.02 1.79-1.77.07-.13 5.09-6.2 1.5-11.71-.05-.16-.1-.32-.15-.51zm-20.15-75.43c-.62-.24-1.2-.46-1.76-.69-.39-.16-.76-.36-1.15-.53-.15-.07-.32-.12-.49-.14-.66-.08-1.31-.17-1.97-.19-.54-.02-1.09.05-1.64.08-.09.01-.19.04-.28.02-.69-.16-1.37-.06-2.05.11-1.77.45-2.07.74-2.66 2.48-.44 1.29-.7 2.61-.86 3.95-.15 1.33-.19 2.63.5 3.85.17.3.34.58.64.72.69.33 1.4.62 2.1.93.34.15.68.3 1.01.46.38.17.75.35 1.18.55-.05-.89-.08-1.71-.14-2.52-.04-.51.06-.97.37-1.38.07-.09.11-.2.19-.37-.33-.02-.57-.06-.82-.05-.26.01-.51.06-.84.1.46-.9.58-1.8.59-2.71 0-.49-.05-.98-.03-1.46.02-.32.09-.66.22-.95.48-1.02 1.37-1.43 2.43-1.53a6.23 6.23 0 012.15.17c.38.09.75.06 1.11-.07.27-.1.53-.19.8-.28.39-.13.77-.26 1.21-.14.09-.11.13-.22.19-.41zm-21.86 83.21c.55.49 1.02.89 1.47 1.32.26.25.55.41.9.47.28.05.56.11.84.1a85.8 85.8 0 002.77-.18c.45-.03.9-.14 1.35.02.1.03.22-.01.32-.02.81-.06 1.57-.31 2.33-.57.77-.25 1.48-.61 2.17-1.03.58-.35.85-.92 1.16-1.47-.28.15-.56.3-.8.5-.93.77-2 1.23-3.14 1.57-.82.24-1.64.43-2.5.45-.71.02-1.41.05-2.12.08-.11 0-.21-.02-.32-.05-.16-.04-.31-.12-.47-.14-.39-.04-.79-.03-1.17-.08-.4-.05-.81-.11-1.21-.21-.25-.06-.35-.27-.26-.47.1-.22.27-.15.45-.11.38.08.77.18 1.15.2 1.02.04 2.04.03 3.06.05.12 0 .28 0 .35.07.18.18.39.18.61.16 1.8-.14 3.43-.79 4.91-1.79 1.12-.76 2.08-1.72 3.05-2.67.07-.07.11-.15.17-.23-.4.13-.76.29-1.11.46-.63.31-1.29.37-1.98.26-.17-.03-.34-.08-.51-.08-1.4.02-2.42-.67-3.23-1.73-.3-.4-.57-.83-.86-1.24-.07-.1-.15-.2-.23-.31-.18.06-.34.11-.5.18-1.11.45-2.21.9-3.31 1.36-.2.08-.38.22-.56.34-.26.17-.52.35-.77.54-.1.08-.21.19-.24.31-.13.42-.23.85-.33 1.27-.1.46-.18.93-.27 1.39-.1.49-.33.88-.79 1.11-.11.05-.23.1-.38.17zm-17.13-57.17c.16-.1.28-.17.39-.25.48-.36.96-.72 1.43-1.08.84-.63 1.7-1.25 2.72-1.58.75-.24 1.4-.63 1.95-1.19.46-.46.9-.92 1.35-1.38.43-.44.94-.73 1.55-.84 1.1-.2 2.18-.3 3.21.28.23.13.5.19.75.28.04.02.11.02.13.05.06.1.13.21.12.31 0 .06-.15.15-.24.15-.2 0-.41-.03-.6-.08-.37-.09-.72-.21-1.09-.29-.52-.11-1.04-.2-1.59-.09-1.07.21-2 .63-2.68 1.53-.63.84-1.46 1.41-2.45 1.78-.18.07-.35.15-.52.22-.91.37-1.74.88-2.51 1.49-.65.52-1.29 1.03-1.92 1.57-.13.11-.19.32-.23.49-.12.6-.22 1.2-.33 1.81-.01.08-.01.16-.01.26.58-.42 1.05-.87 1.4-1.45.2-.33.51-.56.89-.67.44-.13.88-.26 1.32-.34 1.33-.26 2.64-.58 3.92-1.02.4-.14.8-.3 1.15-.53.46-.29.93-.51 1.45-.66.62-.18 1.23-.37 1.84-.59 1-.36 2.03-.58 3.09-.54 1.26.05 2.51.14 3.76.23.49.03 1.16-.15 1.6-.48-.11-.16-.25-.07-.38-.04-.6.15-1.16.05-1.66-.3-.31-.22-.59-.47-.87-.71-.4-.33-.76-.71-1.18-1-1.58-1.07-3.33-1.75-5.17-2.23-1.1-.29-2.12-.19-3.03.53-.74.58-1.48 1.17-2.2 1.78-.59.5-1.21.94-1.92 1.28-.41.19-.86.37-1.18.67-.69.62-1.31 1.31-1.95 1.98-.15.12-.29.34-.31.65zM98.2 122.63c.25.43.05.85.02 1.28-.01.2-.1.35-.26.48-.29.25-.5.57-.58.95-.22.95-.33 1.91-.19 2.9.11.73.18 1.46.22 2.2.04.8.18 1.56.69 2.2.08.1.14.21.2.32.71 1.11 1.57 2.06 2.71 2.77 1.2.74 2.02 1.78 2.24 3.22.03.21.1.41.15.61h.1c.4-.91.77-1.84 1.52-2.55-.11-.08-.15-.12-.21-.15-1.13-.71-1.78-1.75-2-3.06-.16-.94-.34-1.88-.48-2.83-.23-1.55-.38-3.12-.76-4.65-.08-.34-.08-.72-.07-1.08.03-.71.1-1.41.15-2.11.01-.11 0-.22-.01-.37-.09.05-.14.07-.16.1-.24.47-.26.48-.74.29-.71-.29-1.44-.56-2.07-1.02-.06-.04-.14-.05-.27-.09.25.37-.04.44-.2.59zm-34.64-22.8c.07-.08.14-.16.2-.25.55-.9 1.16-1.75 1.89-2.52.07-.08 1.35-1.34 1.79-1.65 1.19-.84 2.4-1.67 3.7-2.35.58-.3 1.14-.65 1.69-1.02.57-.38 1.16-.67 1.82-.85.56-.15 1.11-.35 1.64-.58 1.22-.55 2.46-1.03 3.76-1.37.06-.02.12-.06.27-.13-1.64-.34-3.17-.65-4.73-.84-2.16-.26-4.29-.08-6.42.28-.14.02-.3.1-.4.21-.52.55-1.02 1.11-1.42 1.75-.45.72-.92 1.42-1.38 2.14-1.41 2.19-2.16 4.59-2.41 7.18zm89.11 26.68c-.07.17-.12.27-.16.37-.48 1.33-1.08 2.61-1.94 3.75-.24.31-.43.66-.63.99-.66 1.07-1.24 2.19-2.03 3.17-.05.07-.08.15-.15.29.86-.08 1.59.18 2.32.48.16.06.38.04.55-.02 1.34-.47 2.35-1.36 3.15-2.52.07-.1.1-.23.14-.35.2-.64.5-1.22.95-1.72.7-.77 1.15-1.69 1.61-2.59.75-1.46.95-3.05.74-4.68-.09-.65-.26-1.26-.68-1.78-.14-.18-.24-.4-.36-.61-.07-.12-.14-.23-.26-.41-.15.47-.29.87-.4 1.27-.05.18-.05.38-.02.56.11.63-.18 1.09-.65 1.43-.29.21-.53.43-.71.73-.29.49-.59.97-.88 1.45-.13.24-.31.37-.59.19zm-56.65-12.65c-.19.07-.39.13-.59.22-.64.26-1.26.58-1.91.79-1.09.34-2.21.62-3.32.9-.69.18-1.33.46-1.94.82-.92.54-1.85 1.07-2.94 1.22-.17.02-.34.1-.6.18 3.92.95 7.28 2.63 9.83 5.76.09-.23.15-.38.22-.54.28-.71.78-1.28 1.23-1.89.07-.1.16-.2.19-.31.06-.24.1-.49.13-.73.04-.4.17-.79-.04-1.2-.09-.17-.1-.39-.13-.59-.07-.45-.15-.9-.2-1.35-.03-.28-.05-.56-.04-.84.01-.79.06-1.59.11-2.44zm61.18-15.1c-.1.39-.18.73-.27 1.06-.19.76-.38 1.52-.56 2.29-.04.19-.08.43-.01.6.2.51-.01.97-.23 1.34-.33.55-.27 1.14-.46 1.69.32.07.33.08.56-.08.15-.11.29-.18.47-.05.49.36 1.01.31 1.55.15.02-.16.03-.29.04-.41.07-.03.11-.07.16-.07.8-.05 1.51-.4 2.27-.58.63-.15 1.08-.47 1.41-1.01.08-.13.25-.23.4-.29.33-.14.69-.22 1.01-.36.18-.08.35-.1.54-.08.62.07 1.22-.03 1.79-.28.59-.27 1.17-.54 1.75-.82.24-.12.49-.24.67-.53-.52-.04-.99-.09-1.46-.1-1.39-.04-2.76-.24-4.09-.61-1.36-.38-2.69-.87-4.03-1.32-.49-.17-.97-.35-1.51-.54zm-30.34 81.46c.42.43.9.77 1.44 1.03 1.5.73 3.07 1.3 4.69 1.68.63.15 1.28.2 1.92.01 1.15-.35 2.24-.85 3.13-1.68.83-.77 1.62-1.58 2.23-2.55.22-.34.49-.65.74-.97.83-1.09 1.7-2.14 2.37-3.34.4-.71.88-1.38 1.32-2.07.07-.11.14-.23.21-.34a.5.5 0 01-.08-.07c-.2.19-.41.37-.6.57-.15.16-.27.36-.43.5-1.1.99-2.19 1.98-3.43 2.8-1 .67-1.97 1.4-2.97 2.08-.43.29-.88.55-1.33.8-.51.29-1.03.54-1.53.83-1.05.63-2.16 1.08-3.41 1.11-.25.01-.5.05-.75.07-.85.1-1.69.07-2.52-.19-.33-.09-.67-.17-1-.27zM69.91 87.24c.02.03.04.06.05.08.15-.02.3-.04.45-.07 1.5-.26 3-.29 4.5-.12 1.51.17 3.02.41 4.53.62.49.07.98.12 1.47.17 0-.06.01-.08 0-.09-.8-.93-1.6-1.85-2.39-2.79-.68-.8-1.39-1.59-2.02-2.42-.28-.38-.68-2.83-1.1-2.72-.24.07-1.28 1.59-1.28 1.59-.67.25-2.86 3.99-3.66 5-.18.25-.36.5-.55.75zm69.7 40.03c-.46.27-.86.61-1.07 1.1-.12.29-.31.39-.57.39-.26 0-.44.12-.64.26-.35.23-.72.43-1.04.62-.09-.04-.1-.05-.11-.06-.03-.03-.07-.06-.1-.1-.25-.37-.57-.44-.98-.29-.58.21-1.17.36-1.74.59-.52.2-1.03.23-1.57.11-.71-.17-.97-.45-.99-1.16-.01-.23-.02-.46.33-.44.06 0 .15-.09.2-.16.13-.18.11-.37.07-.59-1.18-.05-2.24-.42-3.27-.9-.5-.23-1-.46-1.56-.51-1.29-.13-2.56-.06-3.92.2.45.4.84.78 1.27 1.12.19.15.45.21.68.3.38.14.79.22.98.66.04.09.17.14.26.2.23.14.46.27.68.42 1.88 1.28 3.97 1.94 6.22 2.09 1.43.09 2.83-.08 4.17-.6.17-.07.34-.18.47-.3.89-.9 1.57-1.91 2.23-2.95zm78.1-38.91c-.14-.22-.27-.41-.38-.61-.41-.81-.71-1.66-.6-2.58.12-1.04-1.1-2.29-1.95-2.51-1-.25-1.99-.23-3-.17-.34.02-.56.14-.66.47-.04.15-.14.28-.22.41-.66 1.05-1.31 2.11-1.84 3.23-.12.26-.17.51-.06.88.1-.23.18-.36.21-.51.09-.36.26-.67.53-.93.23-.22.46-.43.69-.64.3-.27.64-.51.92-.81.26-.28.57-.37.93-.36 1.13.02 2 .57 2.76 1.34.16.16.3.36.21.68-.19-.06-.37-.09-.53-.17-.25-.13-.48-.3-.71-.46-.46-.33-.77-.31-1.22.04-.23.18-.5.32-.75.49-.35.24-.76.44-1 .76-.34.45-.7.84-1.18 1.14.04.12.07.22.11.33.18-.02.33-.05.48-.06.8-.08 1.6-.35 2.41 0 .04-.21.07-.38.1-.54.09-.43.17-.86.46-1.22.36-.44.81-.46 1.13.01.18.26.32.58.4.89.1.41.13.84.16 1.26.02.23.01.47-.03.7-.03.14-.11.3-.21.41-.15.16-.33.11-.4-.1-.03-.07-.04-.16-.03-.23.05-.4-.14-.74-.31-1.07-.06-.12-.2-.21-.35-.36-.06.19-.13.29-.11.38.12.8.22 1.61.6 2.37.1-.03.19-.05.28-.08.5-.15.57-.24.6-.76v-.19c-.01-.52.12-.97.64-1.21.18-.08.23-.22.22-.42-.02-.36-.03-.72-.01-1.08.01-.17.09-.34.14-.53.4.22.42.22.46.49.08.62.14 1.25.2 1.87.01.06-.02.15.01.18.31.38.49.9 1.08.97.48-.4.56-.99.7-1.55.02-.06-.01-.16-.06-.21-.13-.15-.28-.28-.45-.44-.13.19-.23.32-.37.5zm-105.3 37.26c-.07-.51-.14-.95-.19-1.38-.31-2.41-.73-4.81-.57-7.26.05-.85.02-1.7.39-2.49.02-.03-.01-.09-.02-.18-.21.12-.4.16-.6.02-.31-.21-.57-.08-.8.14-.44.41-.8.88-1.01 1.46-.28.74-.45 1.51-.47 2.3-.02.96 0 1.91.01 2.87 0 .17.03.35.1.5.35.72.75 1.42 1.08 2.14.41.91 1.15 1.44 2.08 1.88zm96.53-40.58c.03.01.06.01.08.02.1-.21.21-.42.29-.63.24-.65.44-1.31.5-2 .04-.54.3-.9.87-1.02.54-.11 1.06-.31 1.6-.41.63-.11 1.27-.21 1.91-.23 1.67-.06 3.13 1.33 3.25 2.87.04.52.05 1.03.09 1.55.02.33.04.68.28.93.3.31.64.59 1.02.93.02-.23.05-.37.03-.51-.07-.72-.11-1.44-.24-2.15-.16-.88-.41-1.74-.59-2.62-.15-.74-.58-1.25-1.24-1.55-.57-.26-1.16-.48-1.76-.67-.55-.18-1.13-.28-1.69-.44-.23-.06-.45-.17-.65-.24-.44.3-.87.65-1.35.91-.85.46-1.74.88-2.61 1.31-.32.16-.32.18-.25.55.12.62.23 1.23.32 1.85.08.52.1 1.04.14 1.55zm-21.64 0c-.03-.02-.07-.04-.1-.07-.29.32-.61.62-.87.97-.38.5-.73 1.02-1.09 1.54-.22.32-.5.61-.49 1.04 0 .09-.06.18-.1.26-.3.53-.58 1.08-.9 1.6-.6.96-1.22 1.9-1.83 2.85-.06.1-.11.2-.18.33.43-.01.75-.15 1.06-.35.79-.52 1.58-1.03 2.35-1.57.24-.17.44-.4.61-.64.29-.41.54-.85.79-1.29.09-.16.15-.34.17-.52.19-1.27.36-2.55.54-3.83-.01-.1.02-.21.04-.32zm-36.02 58.34c-.02 0-.05-.01-.07-.01-.09.19-.19.39-.28.58-.33.76-.37 1.55-.29 2.36.17 1.59.34 3.18.52 4.77.23 2.05.21 4.11-.03 6.15-.17 1.37-.5 2.72-.76 4.07-.04.19-.08.37-.12.55l-.09.55c.04.01.08.01.12.02.33-1.11.7-2.21.99-3.33.34-1.29.49-2.62.55-3.96.06-1.41.12-2.82.15-4.23.05-1.97-.36-3.9-.54-5.85-.07-.55-.11-1.11-.15-1.67zm53.77-38.22l.31.06c1.16.21 2.32.42 3.48.62 1.18.2 2.34.47 3.42 1.01.31.15.64.28.97.37.24.07.53.14.73-.13.16-.23.3-.47.46-.71-.04-.03-.06-.06-.09-.06-1.09-.09-2.19-.17-3.28-.27-1.37-.13-2.69-.45-3.89-1.19-1.67-1.02-3.2-2.21-4.53-3.66-.18-.2-.41-.36-.61-.54.58 1.87 1.86 3.3 2.86 5.03.08-.24.12-.38.17-.53zm5.42-14.82c0 .2-.02.36.01.51.09.49.21.98.31 1.47.23 1.18 1.11 1.73 2.09 2.17.11.05.25.04.37.03.08-.01.19-.06.24-.12.27-.43.52-.87.82-1.38-.21.06-.37.12-.53.15-.26.05-.53.11-.79.11-.32 0-.45-.19-.37-.5.04-.16.12-.32.22-.46.17-.24.37-.46.58-.7-.6-.73-.46-1.63-.58-2.47-.64.04-.7.08-.76.63-.03.24-.15.33-.36.36-.14.02-.32-.01-.41.06-.26.17-.52.21-.84.14zm-51.53 31.82c.03-.01.07-.01.1-.02.2-.69.24-1.39.15-2.1-.07-.55-.26-1.04-.82-1.29-.29-.13-.4-.38-.41-.69-.01-.15 0-.34-.08-.45-.3-.4-.3-.85-.24-1.31.04-.29-.02-.55-.16-.82-.25-.48-.39-.99-.38-1.54.01-.33-.18-.6-.39-.85-.05.71-.06 1.41-.08 2.12-.02.71-.05 1.41-.09 2.12-.04.7-.26 1.38-.26 2.08.14.01.28-.02.32.03.15.19.3.15.5.12.29-.05.55.04.72.32.06.09.18.2.28.2.36.01.46.21.51.54.09.52.22 1.03.33 1.54zm27.94-30.29c-.33.18-.62.31-.88.47-.29.18-.59.37-.82.62-.64.7-1.4 1.14-2.33 1.34-.61.13-1.22.31-1.81.53-.84.32-1.35.97-1.68 1.85.12-.02.19-.02.26-.05.76-.26 1.52-.52 2.27-.8.89-.33 1.73-.76 2.47-1.35.4-.31.78-.63 1.27-.79.53-.17.83-.65 1.28-.94.08-.05.11-.22.1-.33 0-.16-.07-.33-.13-.55zm-65.02 31.08c.17.07.29.14.43.18.65.17 1.28.4 1.98.3.36-.05.74.08 1.11.13.12.02.24.04.43.08-.54-1.19-1.05-2.32-1.57-3.47-.5.07-.92.27-1.18.69-.42.67-.79 1.36-1.2 2.09zm-23.34 11.44l-.1.07c.33.64.66 1.28 1 1.91.05.09.19.13.3.17.38.12.5.27.41.66-.06.24.02.39.14.56.43.58.83 1.19 1.27 1.75.29.38.65.71 1.02 1.1.04-.15.07-.2.07-.26.11-1.22-.11-2.35-1.01-3.26-.27-.27-.55-.51-.85-.75-.52-.43-1.06-.83-1.58-1.26-.24-.21-.45-.46-.67-.69zm126.9-45.63c-.16-.34-.34-.64-.43-.96-.2-.76-.35-1.53-.52-2.3-.03-.13-.07-.26-.13-.45-.27.55-.51 1.02-.73 1.5-.06.13-.11.27-.12.4-.04.96-.35 1.85-.6 2.75-.09.32-.09.64.1.97.83-.66 1.64-1.29 2.43-1.91zm-73.36 8.21c-.04.49.25.74.58.93.21.12.34.25.37.5.04.29.17.53.42.7.38.26.58.7.72 1.09.2.55.34 1.15.06 1.77-.25.57-.03 1.14.13 1.71.15-.47.23-.95.33-1.42.07-.32.24-.63.25-.95.04-.75.02-1.5.01-2.25-.01-.38-.04-.77-.06-1.17-.89-.31-1.83-.6-2.81-.91zm49.85-24.64c-1.14.05-3.48 1.81-3.79 3.48l2.13.12c.55-1.21 1.09-2.37 1.66-3.6zm-19.66 2.47c-.31.35-.57.66-.85.95-.28.29-.57.55-.86.83.98.38 1.9.72 2.82 1.09 1.2.49 2.33 1.1 3.18 2.11.01.02.05.01.1.01-.37-.83-.89-1.52-1.71-1.93-.32-.16-.66-.3-.98-.47-.56-.29-.85-.84-1.24-1.29-.06-.07-.05-.21-.08-.32-.02-.07-.01-.2-.05-.21-.36-.13-.23-.47-.33-.77zm-55.3 48.11c.38.17.74.35 1.12.49.26.1.54.13.83.02.83-.33 1.67-.65 2.5-.98.1-.04.18-.11.27-.16-.25-.38-.25-.37-.63-.33-.12.01-.25-.01-.37-.01-1.09 0-2.15.23-3.21.41-.25.04-.55.2-.51.56zm44.71-57.9c-.59-.57-1.26-1.02-2.03-1.24-.93-.27-1.89-.46-2.85-.61-.54-.09-1.1-.11-1.7-.01.17.4.33.75.46 1.06.65-.1 1.24-.19 1.82-.29.81-.15 1.56-.01 2.26.42.63.39 1.33.56 2.04.67zm15.23 30.68c-2.32.47-4.55.91-6.45 2.32 2.2-.32 4.22-1.28 6.4-1.66.02-.25.03-.43.05-.66zM115.9 150.2c-.01.02-.03.05-.04.07.25.18.49.38.75.54 2.16 1.39 4.54 2.11 7.06 2.45.83.11 1.66.05 2.48-.17.13-.04.25-.09.38-.13 0-.03-.01-.06-.01-.09h-.49c-.47.01-.94.06-1.41.02-.83-.06-1.66-.17-2.48-.24-1.48-.12-2.85-.58-4.14-1.33-.61-.36-1.23-.69-1.85-1.03-.07-.04-.16-.06-.25-.09zm55.84-50.71c-.01-.02-.02-.04-.02-.05-.57.15-1.14.3-1.71.46a8.27 8.27 0 01-4.6.05c-.15-.04-.31-.05-.46-.02-.38.08-.75.18-1.15.28.05.03.08.07.12.08 1.04.16 2.07.33 3.13.36 1.57.05 3.06-.21 4.43-1 .09-.06.18-.11.26-.16zm-44.94 25.99c-.56-.29-1.12-.54-1.76-.55-.88-.01-1.75-.04-2.63-.11-.34-.03-.64-.05-.9.19.51.77.48.72 1.32.66h.05c1.29-.25 2.6-.35 3.92-.19zm4.73 21.9c-1.96.44-3.82 1.23-5.89 1.52.53.3 1.02.3 1.52.24 1.61-.19 3.01-.94 4.37-1.76zm70.32-36.87c.01-.02.01-.05.02-.07-.18-.09-.35-.21-.53-.28-.96-.38-1.92-.75-2.89-1.13-.1-.04-.21-.06-.32-.09-.55-.14-1.07-.35-1.53-.7-.13-.1-.29-.17-.44-.25.61.77 1.38 1.29 2.25 1.68.98.43 2.04.6 3.08.83.11.03.24.01.36.01zm2.92-2.71c-.04-.01-.07-.01-.11-.02-.08.29-.19.59-.23.89-.05.39-.04.78-.07 1.17-.02.26.07.46.25.63.4.38.79.76 1.19 1.13.07.07.17.11.25.17.03-.02.06-.04.08-.05-.04-.1-.04-.23-.11-.3-.5-.6-.69-1.33-.88-2.06-.12-.53-.24-1.04-.37-1.56zm-49.3-9.78c.12.95.23 1.79.34 2.63.04.32.03.62-.09.92-.08.19-.1.4-.15.61.04.01.07.02.11.02.45-1.2.72-2.44.97-3.7-.41-.16-.77-.3-1.18-.48zm.52 13.74c.01-.17.02-.26.01-.35-.05-.35-.09-.71-.16-1.06-.17-.81-.42-1.58-1.01-2.19-.12-.13-.3-.26-.46-.28-.25-.03-.43-.11-.56-.35-.04.11-.07.21-.03.26.18.27.35.56.57.8.39.42.72.87.92 1.41.22.56.46 1.11.72 1.76zm-14.95 4.45c-.02.11-.07.21-.05.3.05.2.13.39.19.58.13.4.27.8.4 1.2.2.63.4 1.26.6 1.88.02.07.07.12.14.23.19-.46.18-.87.09-1.28-.23-1.03-.72-1.94-1.25-2.83-.01-.04-.05-.04-.12-.08zm12.28-9.8c.42-1.25-.07-2.23-.76-3.27.03 1.08 0 2.06.23 3.04.17.07.34.14.53.23zm-50.59 11.52c.56-1.98 1.14-4.06 1.72-6.11-.87.95-1.65 3.97-1.72 6.11zm-.07 7.9c0 .07 0 .15.01.22.2 1.53.38 3.05.61 4.58.08.5.27.99.41 1.48.03-.01.06-.02.09-.02-.22-2.11-.68-4.18-1.12-6.26zm22.53-8.18c.03.03.05.06.08.09.96-.16 1.84-.53 2.71-.97-.46-.08-.91-.12-1.36-.14-.15-.01-.33.02-.44.11-.35.28-.67.6-.99.91zm90.36-25.76c.65-.33 1.19-.65 1.19-1.45 0-.34.07-.67-.03-1.03-.5.66-.91 1.51-1.16 2.48zm-72.59 21.02c-.09.72.5 3.65.84 4.18-.03-1.49-.24-2.87-.84-4.18zm-14.97 39.01c.42-.51.69-1.05.94-1.61-.62.39-1.2.83-2.05.91.43.28.76.48 1.11.7zm59.03-57.84c-.03-.03-.05-.06-.08-.08-.7.95-1.8 1.19-2.77 1.68.92-.21 1.84-.42 2.75-.63.03-.36.07-.67.1-.97zm-52.84 10.15c.91.64 1.83 1.24 2.98 1.33-.88-.69-1.92-1.05-2.98-1.33zm-26.14 16.9c-.1-1.32-.19-2.64-.29-3.95-.25 1.32-.35 2.64.29 3.95zm16.85-.55c-.03-.88.35-1.5.79-2.11-.38.06-.7.23-.97.45-.09.07-.2.21-.18.31.04.42.03.87.36 1.35zm48.76-21.22l2.76-.9c.14-.05.22-.15.26-.34-1.11.23-2.1.65-3.02 1.24zm49.82-16.18c-.25.83-.69 1.6-.75 2.5.73-.7.8-1.59.75-2.5zm-63.81 26.23c1.08.57 2.15 1.14 3.23 1.7-.91-.88-2.02-1.41-3.23-1.7zm-36.58 44.95c-1.02-.22-2.05-.45-3.07-.67.95.57 1.97.82 3.07.67zm85.65-65.72c.28-.07.5-.13.7-.18.11-.69.09-.72-.51-.84-.06.31-.12.63-.19 1.02zm-36.43 58.47c-.19.92-.12 1.85-.05 2.78.12-.92.18-1.85.05-2.78zm-60.17-11.49c-.57.74-.77 2.13-.39 2.89-.12-1.06.1-1.98.39-2.89zm54.9-32.69c.62-.11 2.29-.92 2.6-1.25-.9.33-1.77.65-2.6 1.25zm-19.84-6.75c-.6-.58-1.36-.95-2.07-1.37.57.64 1.27 1.07 2.07 1.37zm21.64 7.44c-.16-.16-.26-.27-.38-.36-.07-.05-.18-.08-.25-.06-.36.13-.72.29-1.07.44.01.02.02.04.02.06.54-.02 1.07-.05 1.68-.08zm-25.59 47.81c-.31.15-.55.27-.77.37.03.21.05.35.07.53.32-.2.61-.4.7-.9zm-6.3-79c-.27.66-.38 1.37-.19 2.09.07-.69.13-1.39.19-2.09zm4.72 16.41c.22.21.44.43.68.66.11-.14.18-.25.26-.35-.24-.31-.59-.3-.94-.31zm-35.93 47.43c-.35-.16-.69-.31-1.03-.46l-.06.09c.28.21.55.43.82.63.08-.05.13-.07.16-.1.03-.04.05-.08.11-.16zm96.77-64.5c-.57-.03-.73 0-1.01.21.38.2.71.16 1.01-.21zm-29.09-6.9l-.11.03c-.02.17-.04.33-.06.52.22.06.39.11.56.15.02-.03.04-.05.06-.08-.15-.2-.3-.41-.45-.62zm-12.13 2.62c.25.36.6.41 1.26.24-.41-.08-.81-.16-1.26-.24zm14.86 30.06c.02.03.03.06.05.1.35-.2.9-.01 1.08-.68-.42.22-.77.4-1.13.58zm-32.76-13.74l.1-.03c-.01-.2-.02-.4-.05-.6-.03-.23-.17-.29-.42-.25.13.31.25.6.37.88zm12.26 53.78c.37-.53.51-1.1.42-1.8-.15.65-.28 1.22-.42 1.8zm-10.79-65.28c.41-.21.75-.38 1.11-.56-.49-.07-.62-.01-1.11.56zm22.67 26.97c.45.11.96.01 1.4-.24-.52.09-.96.16-1.4.24zm-45.94 27.84l-.71-.71c.09.35.12.76.71.71zM162 99.78c-.4-.23-.8-.47-1.29-.4.42.14.86.27 1.29.4zM95.65 123.1c-.03 0-.06-.01-.1-.01-.22.43-.23.6-.04.95.05-.34.1-.64.14-.94zm55.4-22.38c-.03.02-.06.03-.09.05.05.36.26.62.58.82-.17-.29-.33-.58-.49-.87zm-23.52 22.99c-.23-.11-.35-.17-.51-.25v.36c.15-.04.27-.06.51-.11zm-20 13.45c-.32-.21-.32-.21-.51-.1.19.04.36.07.51.1zm2.51-35.52c.07-.17.13-.34.2-.51-.29.08-.3.27-.2.51zm29.48 37.43c.39-.11.39-.11.34-.41-.1.12-.18.22-.34.41zm-13.72 11.18c.01-.03.02-.06.03-.08-.19-.08-.38-.15-.57-.23-.01.03-.02.05-.03.08.2.07.38.15.57.23zm26.23-49.16c.02-.01.04-.03.07-.04-.04-.06-.07-.12-.11-.17-.02.01-.04.02-.05.03.02.06.05.12.09.18z"/><path class="st5" d="M221.9 84.77c-.08.45-.16.83-.24 1.26-.15-.75-.11-1.03.24-1.26z"/><g><path class="st2" d="M28.28 226.19H22.7v-3.07h14.48v3.07H31.6v27.19h-3.33v-27.19zM62.12 239.55h-7.39v10.76h9.08v3.07H51.36v-30.25H63.8v3.07h-9.08v10.33h7.39v3.02zM81.05 253.38h-3.11l5.79-30.25h4.88l5.79 30.25h-3.37l-1.17-6.09h-7.65l-1.16 6.09zm8.34-8.99l-3.41-17.46-3.33 17.46h6.74zM122.24 230.43v2.72h-3.2v-2.9c0-2.72-1.08-4.37-3.54-4.37-2.42 0-3.54 1.64-3.54 4.37v15.99c0 2.72 1.12 4.37 3.54 4.37 2.46 0 3.54-1.64 3.54-4.37v-3.93h3.2v3.76c0 4.58-2.16 7.61-6.83 7.61-4.62 0-6.79-3.03-6.79-7.61v-15.65c0-4.58 2.16-7.61 6.79-7.61 4.66.01 6.83 3.03 6.83 7.62zM140.56 253.38h-3.37v-30.25h3.37v13.61h7.43v-13.61h3.37v30.25h-3.37v-13.61h-7.43v13.61zM168.61 253.38h-2.94l11.93-30.25h2.94l-11.93 30.25zM198.21 253.38h-3.37v-30.25h3.37v13.61h7.43v-13.61h3.37v30.25h-3.37v-13.61h-7.43v13.61zM235.12 239.55h-7.39v10.76h9.08v3.07h-12.45v-30.25h12.45v3.07h-9.08v10.33h7.39v3.02zM265.29 230.04v2.46c0 3.33-1.17 5.4-3.76 6.22 2.77.82 3.8 3.07 3.8 6.31v4.71c0 1.34.04 2.59.61 3.63h-3.41c-.39-.86-.56-1.64-.56-3.67v-4.75c0-3.41-1.6-4.49-4.41-4.49h-2.38v12.92h-3.37v-30.25h6.74c4.75-.01 6.74 2.41 6.74 6.91zm-3.33 3.2v-2.9c0-2.72-.99-4.15-3.5-4.15h-3.28v11.19h2.51c2.67 0 4.27-.86 4.27-4.14z"/></g></g></svg>